<svg width="606" height="296" viewBox="0 0 606 296" fill="none" xmlns="http://www.w3.org/2000/svg">
<path fill-rule="evenodd" clip-rule="evenodd" d="M358.171 174.842C361.57 158.773 373.621 146.303 389.829 140.091C392.945 138.332 395.965 130.785 400.152 129.403C400.823 129.181 399.764 130.945 400.152 131.05C401.537 131.426 403.088 131.465 404.617 130.108C407.35 127.684 408.207 120.602 409.868 117.401C418.63 100.519 440.507 107.124 443.438 125.787C445.481 127.116 448.37 128.288 450.595 129.359C452.885 130.462 454.9 133.134 457.261 134.09C459.367 134.942 462.838 134.338 464.96 135.081C474.721 138.499 482.989 142.812 489.471 151.55C490.837 153.393 492.376 155.659 493.619 157.521C500.027 164.883 504.477 173.136 508.576 181.99C520.045 207.978 523.164 236.752 525.963 264.752C525.899 269.651 529.156 283.236 524.339 285.585C524.627 285.883 524.523 286.481 523.988 286.476C511.774 286.353 499.588 287.444 487.564 289.566C481.762 290.589 475.991 291.993 470.082 292.223C457.814 292.139 445.59 290.087 433.339 292.029C418.611 292.029 400.711 291.6 384.327 290.972C369.013 290.384 353.618 291.711 338.494 289.112C337.297 288.923 336.712 287.465 336.963 286.421C338.738 279.967 339.609 273.325 340.604 266.72C340.406 262.483 340.761 258.06 342.331 254.114C346.434 227.474 351.694 201.009 358.171 174.842Z" fill="#FFDBB4"/>
<path fill-rule="evenodd" clip-rule="evenodd" d="M400.152 131.148C399.764 131.042 400.823 129.279 400.152 129.501C395.965 130.883 392.945 138.43 389.829 140.189C373.621 146.401 361.569 158.87 358.171 174.94C351.694 201.106 346.433 227.572 342.331 254.212C340.761 258.158 340.406 262.581 340.604 266.817L340.448 267.861C339.515 274.121 338.644 280.405 336.963 286.518C336.712 287.563 337.297 289.02 338.494 289.209C353.446 291.779 368.663 290.511 383.804 291.05L386.96 291.168C402.612 291.742 419.396 292.126 433.339 292.126C445.59 290.185 457.814 292.236 470.082 292.321C475.991 292.09 481.762 290.687 487.564 289.663C499.588 287.542 511.774 286.451 523.988 286.574C524.523 286.579 524.627 285.981 524.339 285.683C529.156 283.334 525.899 269.749 525.963 264.85L525.71 262.328C522.969 235.126 519.701 207.296 508.576 182.088L508.243 181.371C504.235 172.788 499.854 164.782 493.619 157.618L493.238 157.049C492.07 155.308 490.7 153.307 489.471 151.648C482.989 142.91 474.721 138.597 464.96 135.179C462.837 134.436 459.367 135.04 457.261 134.187C455.053 133.294 453.148 130.899 451.036 129.69L451.036 138.707L420.484 168.748L403.155 142.226L401.393 131.364C400.968 131.337 400.553 131.257 400.152 131.148Z" fill="#8FA7DF"/>
<path fill-rule="evenodd" clip-rule="evenodd" d="M363.113 209.858C363.436 211.425 363.889 212.991 364.492 214.475C365.072 215.906 365.946 217.189 366.548 218.604C366.629 218.795 366.761 218.939 366.92 219.049L366.87 219.434L366.825 219.818C366.524 222.416 366.187 225.006 365.894 227.602L365.752 228.902C365.177 234.324 364.269 239.719 363.564 245.127C362.873 250.422 362.171 255.717 361.419 261.005C360.643 266.457 359.852 271.901 358.93 277.331C358.54 279.624 358.133 281.915 357.71 284.205L357.382 285.957C354.014 286.766 353.093 291.452 356.523 293.182C358.08 293.964 360.08 293.776 361.363 292.547C362.696 291.267 362.752 288.957 363.061 287.222L363.359 285.61C365.59 273.489 367.526 261.229 368.431 248.936C368.663 245.762 368.859 242.586 368.986 239.406C369.107 236.416 369.049 233.426 369.096 230.435L369.111 229.62C369.182 226.431 369.123 223.247 369.04 220.058C369.03 219.669 369.013 219.281 368.994 218.89C369.106 218.758 369.187 218.602 369.221 218.45L369.265 218.25C369.376 217.734 369.251 217.13 368.854 216.761C368.683 214.589 368.458 212.419 368.396 210.249C368.391 210.071 368.134 210.076 368.119 210.249C367.975 212.097 367.686 213.949 367.397 215.799C365.539 214.308 364.166 211.85 363.356 209.792C363.297 209.643 363.079 209.697 363.113 209.858ZM407.076 123.497C406.768 124.904 406.158 126.168 405.34 127.343C404.951 127.905 404.508 128.428 403.977 128.865C403.521 129.239 403.002 129.483 402.518 129.809C401.813 129.698 401.076 129.965 400.581 130.483L400.659 129.726C400.684 129.481 400.278 129.432 400.231 129.669C398.089 140.451 396.136 151.239 394.445 162.099L393.704 166.894L393.007 171.397C391.849 178.899 390.729 186.398 389.885 193.955C388.762 204.04 387.817 214.152 387.127 224.278C386.434 234.475 386.008 244.679 385.704 254.896C385.628 257.472 385.547 260.045 385.469 262.62L384.946 259.541C384.425 256.461 383.913 253.379 383.474 250.285C381.9 239.213 380.641 228.063 380.027 216.896C379.464 206.677 379.652 196.255 382.257 186.299C382.913 183.795 383.716 181.329 384.686 178.927C385.626 176.591 386.909 174.426 387.92 172.124C389.095 169.446 389.447 166.92 388.843 164.036C388.314 161.524 387.386 159.161 387.22 156.576C386.909 151.777 388.473 147.129 390.683 142.928C391.266 141.821 391.881 140.729 392.522 139.646C394.463 136.375 396.652 133.222 398.924 130.2C399.046 130.038 398.787 129.86 398.654 129.992C396.584 132.035 394.319 134.043 392.456 136.274C391.55 137.359 390.667 138.466 389.829 139.603C380.644 141.135 372.751 146.845 367.356 154.386C361.233 162.944 358.136 173.244 355.845 183.387C353.296 194.659 351.147 206.034 348.858 217.362C346.488 229.085 344.131 240.807 341.747 252.526C340.562 258.344 339.377 264.162 338.194 269.983C337.595 272.93 336.965 275.87 336.307 278.807C335.969 280.312 335.606 281.815 335.293 283.325C334.941 285.028 335.269 286.118 336.424 287.369C336.85 287.834 337.524 287.826 338.052 287.579L338.218 287.502L338.377 287.425C339.032 287.104 339.545 286.771 339.952 286.057C340.4 285.273 340.471 284.403 340.625 283.53C340.909 281.925 341.191 280.32 341.475 278.712C341.899 276.307 342.36 273.909 342.83 271.512L345.186 259.533C345.814 256.339 346.443 253.145 347.076 249.953C349.336 238.536 351.598 227.122 353.859 215.708C356.031 204.749 357.953 193.714 360.425 182.817L360.566 182.203L360.709 181.59C362.919 172.197 366.008 163.111 371.613 155.151C375.927 149.03 381.917 143.564 388.973 140.797C388.475 141.511 387.998 142.239 387.543 142.982C384.683 147.644 382.595 153.179 383.085 158.731C383.325 161.443 384.358 164.109 384.26 166.844C384.169 169.273 382.664 171.406 381.623 173.519C379.261 178.309 377.552 183.399 376.45 188.621C374.24 199.106 374.247 209.895 375.009 220.539C375.836 232.11 377.408 243.678 379.197 255.136C380.115 261.012 381.337 266.841 382.272 272.708C382.735 275.601 383.364 278.487 383.915 281.365L384.177 282.741C384.324 283.504 384.477 284.265 384.653 285.017L384.762 285.468V285.549C384.766 286.103 384.918 286.563 385.163 286.929C385.498 288.002 385.915 289.048 386.468 290.052C386.752 290.565 387.163 290.854 387.611 290.959C388.062 291.988 389.083 292.779 390.302 292.775L406.334 292.713C415.647 292.677 424.959 292.615 434.272 292.564C436.622 292.552 438.969 292.508 441.317 292.447C443.518 292.386 445.628 292.122 447.805 291.848C450.263 291.54 451.594 289.803 451.227 287.352C451.146 286.812 451.058 286.275 450.975 285.737C451.464 285.898 452.047 285.822 452.441 285.439L452.811 285.078C453.323 284.572 453.781 284.075 454.106 283.401C454.441 282.707 454.713 281.974 455.01 281.265C455.649 279.74 456.27 278.211 456.875 276.674C458.087 273.6 459.298 270.513 460.425 267.407C462.655 261.257 464.628 255.013 466.344 248.699C469.404 237.434 471.617 225.952 473.013 214.367L473.346 211.606L473.443 210.79C473.973 206.3 474.418 201.74 474.207 197.259C474.077 194.454 473.642 191.627 472.591 189.007C471.622 186.591 470.126 184.523 468.704 182.363L468.541 182.114L468.378 181.858C467.134 179.896 466.144 177.845 466.094 175.462C466.044 173.044 466.75 170.691 467.539 168.428L467.736 167.869L467.868 167.5C469.546 162.821 471.457 158.209 470.827 153.118C469.896 145.621 465.343 139.578 459.614 134.918C464.709 135.925 469.752 137.914 474.202 140.436C479.459 143.417 484.191 147.351 488.272 151.791C495.983 160.182 501.489 170.25 505.996 180.645C510.713 191.524 514.212 202.923 516.848 214.472C519.499 226.086 521.274 237.886 522.486 249.733C523.091 255.629 523.566 261.54 523.96 267.454C524.16 270.484 524.312 273.519 524.547 276.544C524.782 279.567 524.888 282.636 525.627 285.578C525.972 286.949 528.3 287.088 528.55 285.578C529.103 282.206 528.949 278.718 528.794 275.303L528.78 274.992C528.628 271.591 528.43 268.192 528.195 264.793C527.715 257.846 527.074 250.908 526.237 243.993C523.301 219.718 517.888 195.571 507.271 173.412C502.272 162.976 495.856 152.835 486.93 145.299C482.68 141.714 477.889 138.852 472.726 136.78C468.109 134.926 463.418 134.048 458.513 134.051C456.052 132.169 453.411 130.53 450.772 129.129C450.613 129.044 450.446 129.249 450.578 129.381C450.647 129.447 450.713 129.515 450.781 129.579C450.483 129.599 450.175 129.738 449.898 130.029C448.928 131.042 448.111 132.311 447.379 133.628C446.265 135.016 445.203 136.45 444.091 137.823C442.311 140.023 440.49 142.19 438.646 144.34C435.55 147.954 432.353 151.5 429.019 154.903L428.462 155.469C426.734 157.216 424.984 159.308 422.94 160.691L422.831 160.763C421.968 161.324 421.357 161.426 420.621 160.588C419.953 159.826 419.396 158.941 418.824 158.101L418.692 157.908C415.771 153.673 413.064 149.282 410.613 144.761C409.496 142.704 408.434 140.617 407.426 138.506L407.125 137.873C406.576 136.709 405.982 135.568 405.529 134.371C405.424 134.09 405.321 133.809 405.22 133.53C406.763 132.521 407.957 130.336 408.39 128.626C408.841 126.849 408.613 125.026 407.811 123.402C407.659 123.096 407.15 123.172 407.076 123.497ZM483.16 195.688C483.373 202.442 483.503 209.204 483.821 215.953L483.931 218.257C483.434 218.809 483.143 219.447 483.375 220.322C483.466 220.657 483.733 220.96 484.066 221.072L484.17 223.214C484.642 232.853 485.196 242.472 486.208 252.086C487.474 264.119 488.938 276.131 490.399 288.141C490.607 289.842 491.792 291.191 493.635 290.942C495.501 290.69 496.257 289.07 496.012 287.381C495.05 280.757 494.125 274.127 493.314 267.481L492.392 259.908C491.234 250.443 490.05 240.978 488.685 231.543C488.115 227.599 487.522 223.657 486.928 219.716L487.136 219.447C487.985 218.345 488.864 217.267 489.733 216.182C491.403 214.091 493.05 212.016 494.58 209.826C494.656 209.716 494.502 209.555 494.392 209.639C492.247 211.22 490.218 212.91 488.176 214.628L486.389 216.138C485.361 209.328 484.342 202.515 483.434 195.688C483.412 195.517 483.155 195.505 483.16 195.688ZM452.312 131.05C453.602 132.264 454.921 133.452 456.221 134.659L456.698 135.103L457.172 135.55C459.457 137.713 461.646 139.964 463.47 142.55C466.819 147.297 468.814 153.086 467.421 158.883C466.266 163.684 463.614 168.036 462.902 172.958C462.545 175.423 462.718 177.901 463.649 180.23C464.599 182.605 466.117 184.641 467.48 186.784C470.442 191.441 470.846 196.553 470.552 201.949C470.244 207.583 469.595 213.221 468.794 218.804C467.174 230.118 464.731 241.315 461.497 252.279C459.879 257.77 457.967 263.143 456.064 268.539C455.117 271.224 454.013 273.846 452.875 276.456C452.275 277.829 451.66 279.195 451.036 280.559C451.266 278.633 451.266 276.657 451.379 274.743C451.541 272.001 451.746 269.265 451.935 266.525C452.319 260.966 452.662 255.402 452.968 249.838C454.052 229.996 454.85 210.137 454.792 190.263C454.762 180.325 454.559 170.387 454.13 160.458C453.93 155.783 453.541 151.112 453.189 146.443L453.115 145.443C452.804 141.252 452.431 137.051 451.793 132.897C451.982 132.471 452.146 132.04 452.268 131.598L452.312 131.431L452.28 131.436C452.309 131.306 452.319 131.177 452.312 131.05ZM441.153 113.974C441.126 113.859 440.962 113.869 440.933 113.974C440.206 116.418 440.463 119.106 441.089 121.564C441.427 122.896 441.907 124.188 442.487 125.435L442.69 125.871C443.187 126.932 443.747 128.026 444.715 128.687C445.119 128.963 445.841 128.98 446.245 128.687L446.451 128.531C446.485 128.505 446.519 128.478 446.551 128.45C446.928 128.135 447.114 127.438 446.941 126.979C446.493 125.794 445.476 124.924 444.774 123.868C444.152 122.93 443.601 121.94 443.144 120.911C442.157 118.685 441.714 116.322 441.153 113.974Z" fill="black"/>
<path fill-rule="evenodd" clip-rule="evenodd" d="M424.031 25.3992C410.16 25.3992 395.812 36.1539 390.728 43.0168C384.848 50.9524 380.211 89.0472 382.386 101.974C384.562 114.9 395.369 128.989 414.131 128.989C432.892 128.989 444.309 126.678 444.767 123.32C445.072 121.082 449.197 113.733 457.142 101.274C465.267 98.9882 469.345 95.115 469.377 89.6545C469.409 84.1941 467.232 80.4706 462.846 78.4839C464.41 56.9348 463.222 43.3551 459.284 37.7447C453.377 29.3292 437.902 25.3992 424.031 25.3992Z" fill="#FFDBB4"/>
<path fill-rule="evenodd" clip-rule="evenodd" d="M433.383 4.52731C431.518 2.33132 428.227 4.40703 428.302 6.8067C427.557 7.00835 426.678 7.70406 426.34 8.61109C425.606 8.56354 424.867 8.70924 424.201 9.09016L424.061 8.91718C421.754 6.09942 418.7 3.68145 415.55 5.75651C414.692 6.32123 414.308 7.25452 414.497 8.26612L414.512 8.33774L414.442 8.0254C414.371 7.72864 414.477 8.32243 414.517 8.44808L414.522 8.46233C414.605 8.6739 414.688 8.78044 414.763 8.94039C411.538 6.64803 406.626 7.98988 409.214 12.4274L408.162 12.0168C404.52 10.6092 399.992 9.09762 396.673 11.6284C395.189 13.0562 396.836 14.96 398.348 15.4215L398.088 15.3781C395.187 14.8852 389.134 13.6671 388.269 17.4451C387.958 18.8045 388.865 19.798 390.009 20.345C387.588 20.3361 385.2 20.7353 383.105 21.9172C381.112 23.3338 382.723 25.678 384.807 25.5758C384.161 26.375 383.946 27.7276 384.57 28.5908C383.386 28.9018 382.293 29.3018 381.286 29.9253L381.009 29.9609C378.996 30.2121 376.7 30.3617 375.592 32.3392C373.962 36.6303 379.766 36.4594 382.257 34.9522C382.109 35.1925 382 35.455 381.938 35.7352L381.131 35.9618C378.086 36.809 374.639 37.745 372.678 40.3087C371.78 41.7841 373.03 44.2913 374.91 43.8432C369.818 46.2688 371.769 52.6587 376.749 49.3347C376.982 49.5504 377.265 49.7106 377.562 49.7813L376.511 50.3511C373.842 51.8126 370.632 53.8135 371.19 57.1318C371.72 58.8879 374.155 58.567 375.393 57.8949C373.23 59.7551 371.19 61.7693 369.336 63.9469L368.823 64.5573C367.381 66.2857 364.873 69.4674 367.59 71.1301C370.939 72.8353 372.608 67.8 374.557 66.0027C372.999 69.6687 378.063 72.2253 379.83 68.5328C380.127 68.585 380.425 68.5903 380.718 68.5509C379.194 70.1666 375.073 81.2215 380.199 78.7975C381.016 77.9334 381.732 76.9892 382.391 75.998C381.568 82.3319 380.966 88.6956 380.576 95.0639L380.438 97.3725C380.296 99.767 380.189 102.172 380.458 104.558C380.769 107.337 381.567 109.944 382.776 112.461C383.891 114.782 385.327 116.933 386.971 118.91C387.85 119.968 388.784 120.996 389.932 121.771C390.846 122.387 391.913 122.792 392.942 123.183C394.615 124.855 396.762 126.118 398.861 127.127C402.32 128.787 406.07 129.703 409.864 130.162C413.743 130.629 417.661 130.517 421.509 129.85C425.186 129.214 429.126 127.589 431.391 124.493C431.586 124.227 431.222 123.975 430.983 124.085C424.411 127.127 417.026 127.922 409.864 126.961C406.522 126.514 403.234 125.59 400.182 124.156C397.607 122.946 395.436 121.187 393.125 119.594C392.675 118.995 392.221 118.406 391.703 117.859L390.895 117.011C390.29 116.374 389.697 115.729 389.158 115.032C387.491 112.884 386.111 110.447 385.2 107.884C383.427 102.894 383.907 97.4781 384.22 92.2781L384.247 91.8199C384.57 86.2582 385.095 80.7162 385.823 75.1936C386.125 72.8954 386.462 70.601 386.831 68.3117C387.422 67.3498 388.054 66.419 388.76 65.547C388.185 67.7824 390.176 70.8898 392.618 69.4144C395.414 67.0237 395.279 63.1647 397.622 60.2371C400.051 56.4839 416.812 49.1845 421.795 48.1594C420.992 49.3276 419.525 50.1413 419.183 51.52C413.055 56.936 423.045 59.8191 426.164 52.1006C426.095 54.6703 425.834 57.2178 425.263 59.726C424.431 62.0293 423.777 68.7045 427.951 66.69C429.949 67.2673 431.472 65.5651 431.723 63.6445C433.166 67.9846 431.801 74.9184 434.448 78.117C435.259 78.9584 436.513 78.3982 436.935 77.4376C439.383 76.7963 439.174 73.9424 439.471 71.8995C441.703 80.0419 444.497 85.6936 444.881 94.1877C443.154 96.6471 446.943 98.4558 448.569 96.4849C450.851 93.1868 448.746 88.6781 448.21 85.0678C448.852 85.0348 449.487 84.7497 450.017 84.127C450.306 85.2601 450.14 86.7527 450.043 87.9816C451.49 93.641 456.991 90.0159 456.764 85.4253C457.001 86.7204 457.181 88.0288 457.295 89.3467C456.233 90.5694 455.445 92.0331 454.98 93.5866C454.644 94.7091 455.785 95.3821 456.656 95.2192C457.119 96.8003 459.129 97.9412 460.45 96.4299C461.756 95.1084 461.983 93.1988 462.088 91.2975C462.269 91.1042 462.38 90.851 462.362 90.5443C462.345 90.2562 462.275 90.0117 462.162 89.8061C462.184 89.4176 462.212 89.0361 462.255 88.6674C463.266 91.8138 462.608 95.1106 462.519 98.333C460.733 99.339 458.695 99.7689 456.647 100.194L456.35 100.255C455.717 100.387 455.517 101.33 455.993 101.726C454.725 102.968 453.631 104.448 452.563 105.814C451.146 107.626 449.79 109.51 448.471 111.399L447.697 112.508C445.436 115.729 442.31 120.093 443.71 124.061C443.901 124.606 444.697 124.801 445.008 124.229C446.026 122.348 446.595 120.276 447.563 118.372C448.513 116.505 449.695 114.775 450.868 113.045L451.545 112.042C452.671 110.368 453.787 108.675 454.821 106.951L455.541 105.756C456.218 104.629 456.887 103.463 457.386 102.252C459.162 102.68 461.02 102.372 462.724 101.632L462.745 101.75L462.788 101.963C463.032 102.987 464.444 103.688 465.347 103.018C467.507 101.389 468.386 98.964 468.615 96.3716C469.051 95.6394 469.42 94.8661 469.721 94.0659C469.863 95.6625 470.479 97.2104 472.376 97.1623C475.669 96.892 475.992 93.7813 475.101 90.6875C479 91.8783 479.456 86.3642 478.226 83.4582C478.683 83.3217 479.106 83.0496 479.348 82.6829L479.55 83.0373C480.299 84.3347 481.148 85.5944 482.332 86.2678C483.986 87.2084 486.39 86.0432 486.28 83.9716C485.926 80.5957 482.968 78.0244 481.167 75.3189C481.487 75.3641 481.821 75.3527 482.148 75.2917C485.747 77.3002 487.465 72.5729 486.198 69.834C485.268 67.3733 483.587 65.2572 481.784 63.3917L482.313 63.7075C483.266 64.269 484.329 64.8112 485.377 64.5909C492.235 69.0981 494.486 61.5177 486.791 59.1485L486.793 59.1132C487.566 58.3681 487.901 57.189 487.3 56.0112C490.123 57.0029 494.153 54.7591 491.665 51.6924C490.042 50.1639 488.127 48.8491 486.005 48.161C486.11 47.5982 486.145 47.0256 486.101 46.4494L486.228 46.4666C487.568 46.6596 489.22 47.2068 490.046 45.7636C490.465 45.0368 490.416 43.8392 489.729 43.2742C487.363 41.3286 484.664 39.7104 481.733 39.0543C481.625 38.6973 481.513 38.3423 481.394 37.9891C483.895 37.9426 486.703 34.6199 483.83 32.7372C481.305 31.45 478.703 30.6221 475.851 30.6989C477.523 29.0498 476.536 26.0607 474.313 25.6012C475.769 22.5003 472.172 20.9003 469.489 21.3893C469.588 20.0116 468.85 18.476 467.431 18.1302C468.175 13.7705 463.56 14.1829 460.669 15.2163C461.637 13.5355 460.642 11.5582 458.934 10.9688C456.136 10.3354 453.46 13.0008 451.33 14.6353C452.056 12.9301 451.443 11.3579 449.713 10.6784C447.932 9.98091 446.012 11.3289 444.525 12.2448C443.716 11.2292 442.335 10.8981 441.097 10.9609C440.965 10.5795 440.771 10.2614 440.522 10.0099C440.529 7.65982 436.529 6.36781 435.133 8.55693C434.895 7.03479 434.269 5.57012 433.383 4.52731ZM383.339 47.152L383.292 47.405C383.233 47.4574 383.178 47.5125 383.121 47.5662C382.942 47.6084 382.77 47.6529 382.607 47.6984C382.845 47.5059 383.09 47.3277 383.339 47.152ZM380.251 40.9846L380.305 41.0598C380.314 41.0722 380.324 41.0844 380.334 41.0962C380.183 41.1534 380.033 41.2117 379.883 41.2719L379.658 41.3637L379.579 41.3986C379.802 41.2587 380.026 41.1201 380.251 40.9846ZM416.259 9.93692L416.394 9.97039C416.437 9.98085 416.477 9.99057 416.515 9.99947C416.528 10.003 416.541 10.0046 416.554 10.0096L416.518 10.002C416.582 10.0506 416.666 10.1078 416.736 10.1536C416.667 10.148 416.599 10.1414 416.531 10.1375C416.441 10.0704 416.35 10.0035 416.259 9.93692Z" fill="black"/>
<path fill-rule="evenodd" clip-rule="evenodd" d="M403.366 106.549C402.99 105.897 402.125 105.294 401.334 105.386C397.79 105.801 397.796 110.091 399.164 112.595C400.378 114.815 402.889 116.119 405.403 115.928C408.044 115.728 410.294 114.178 411.284 111.713C411.939 110.082 412.242 107.07 410.5 105.974C410.467 105.954 410.414 105.959 410.388 105.989C409.553 106.958 409.52 108.415 408.789 109.494C408.109 110.499 407.052 111.328 405.814 111.456C404.89 111.552 403.955 111.219 403.593 110.391C403.398 109.943 403.42 109.699 403.493 109.391L403.56 109.123C403.792 108.184 403.896 107.469 403.366 106.549ZM402.418 87.7371C400.569 88.8587 397.753 91.4741 399.741 94.2547C402.082 96.7065 405.453 93.8954 407.114 92.624C408.654 91.6387 410.384 94.1729 408.955 95.3234C396.954 104.192 392.083 88.0304 401.483 86.4183C402.518 86.2407 402.902 87.3901 402.418 87.7371ZM421.94 80.046C420.805 78.3467 418.215 78.5969 417.59 80.6134C417.251 81.7057 417.719 82.6875 417.695 83.7783C417.675 84.6998 417.735 85.7266 418.018 86.619C418.663 88.654 420.497 90.0913 422.666 90.0317C424.828 89.9723 426.733 88.6064 427.638 86.6825C428.547 84.7514 428.354 82.7527 427.691 80.7891C427.659 80.6947 427.535 80.649 427.461 80.7285C426.677 81.5603 426.102 82.4385 425.508 83.37L424.9 84.3247C424.434 85.0437 423.758 85.962 422.89 85.9044L422.759 85.8915C422.518 85.8708 422.555 85.9187 422.369 85.5902C422.283 85.4382 422.298 85.1558 422.257 84.9764L422.242 84.9158L422.25 84.8832C422.268 84.7963 422.287 84.6326 422.301 84.3486L422.305 84.2858C422.367 82.9573 422.744 81.2499 421.94 80.046ZM393.177 81.1772C393.38 79.0039 390.319 78.5213 389.302 80.1294C388.771 80.968 388.616 82.0215 388.499 83.0195L388.444 83.4933C388.324 84.5184 388.276 85.5847 388.722 86.5409C389.424 88.0469 390.951 88.843 392.598 88.7169C394.171 88.5962 395.606 87.686 396.362 86.3041C397.037 85.0711 397.707 82.6637 396.888 81.3776C396.838 81.2996 396.74 81.2896 396.672 81.3497C395.898 82.0357 395.772 83.2868 395.311 84.1804C394.837 85.1021 394.117 86.0004 393.026 86.1404C391.982 86.2743 391.583 85.7052 391.849 84.7119C392.193 83.4295 393.048 82.5571 393.177 81.1772ZM421.113 67.125L420.612 66.9336C418.897 66.2869 416.542 65.5394 415.148 66.9315C414.288 67.7899 414.124 69.0545 414.738 70.1021C415.482 71.371 416.816 71.4023 418.105 71.5892C419.571 71.8018 421.061 72.206 422.426 72.7822C423.963 73.4315 425.39 74.2408 426.787 75.1447C428.115 76.0036 429.439 77.4074 431.029 77.6721C431.094 77.6828 431.168 77.655 431.185 77.5839C431.546 76.0322 430.542 74.5052 429.647 73.2946C428.563 71.829 427.25 70.626 425.783 69.5474C424.367 68.5062 422.749 67.7538 421.113 67.125ZM389.957 72.6418L389.804 72.6151C388.764 72.4423 387.821 72.4821 387.038 73.3043C386.439 73.9316 386.209 74.7446 386.494 75.5739C386.757 76.339 387.346 77.1163 388.2 77.2766C391.083 77.8181 394.277 77.7287 397.175 77.3186C398.501 77.1309 399.839 76.9013 401.131 76.5391L401.725 76.3672C402.803 76.0598 404.037 75.7386 404.82 74.9471C405.102 74.6627 404.94 74.2556 404.603 74.1239C403.236 73.5897 401.363 73.8739 399.906 73.8321C398.211 73.7837 396.513 73.6569 394.826 73.4822C393.178 73.3111 391.583 72.9395 389.957 72.6418Z" fill="black"/>
<path fill-rule="evenodd" clip-rule="evenodd" d="M380.509 89.2254C383.481 92.2909 388.443 93.1706 392.397 91.5266C402.551 87.2921 397.581 74.0844 389.75 70.5375C388.772 70.2942 387.465 69.7167 386.274 69.5858C386.166 69.533 385.932 69.6857 385.647 69.5413C377.013 70.5036 375.046 83.8828 380.509 89.2254ZM413.259 90.0101C416.592 94.4235 422.79 95.785 427.853 93.7334C437.857 89.8011 434.309 78.0892 427.465 73.4977C413.007 68.0751 407.037 81.8727 413.259 90.0101ZM434.944 80.2313C434.953 80.2269 434.962 80.2247 434.972 80.2203C434.919 80.1971 434.866 80.1739 434.813 80.1502C434.831 80.1949 434.849 80.2391 434.866 80.2838C434.892 80.266 434.915 80.2452 434.944 80.2313ZM373.626 75.4607C374.443 75.4624 375.622 75.5963 376.297 76.1615C377.964 70.5527 384.114 65.3618 389.462 69.1469C393.674 70.4989 396.8 73.4975 398.576 77.484C401.779 75.5823 406.815 76.3944 409.592 78.9091C411.411 72.9098 415.888 70.809 421.216 70.4989C427.032 69.5481 432.828 75.1857 434.637 79.7084C436.141 79.5375 438.388 79.0598 439.803 79.9862C448.985 77.5827 465.038 76.2575 466.905 77.5929C468.235 78.1024 468.965 81.2366 467.107 81.4057C465.488 81.1762 467.296 79.1092 465.664 78.8836C456.967 78.3456 448.525 80.0937 439.921 80.8273C439.153 81.8587 436.671 82.2038 435.346 81.7893C437.432 89.4612 432.93 94.6808 426.184 96.2442C415.739 98.6391 406.651 89.3124 409.383 79.6113C406.219 78.0401 402.579 78.1076 399.132 78.9352C404.892 100.094 370.752 99.145 376.084 76.8865C372.535 78.6483 371.765 75.8162 373.626 75.4607Z" fill="black"/>
<g clip-path="url(#clip0_1_109)">
<path d="M200.407 186.433H257.803V257.071H200.407V186.433Z" fill="#FDEA6B"/>
<path fill-rule="evenodd" clip-rule="evenodd" d="M274.543 117.342C268.356 112.633 252.824 110.516 246.22 115.05C239.698 119.602 238.987 126.965 235.948 133.737C233.081 132.386 228.345 134.321 227.514 136.981C226.483 138.235 226.436 141.758 225.725 143.444C194.786 148.366 190.089 172.473 186.365 199.841C181.438 227.613 170.255 255.323 175.11 283.901C174.477 284.816 173.979 285.705 173.517 286.761C172.412 288.64 173.836 291.3 176.065 291.197C178.95 290.944 181.806 290.598 184.705 290.49C192.74 290.211 200.783 290.244 208.821 290.347L209.917 290.361C250.429 290.865 290.938 291.858 331.451 292.121C332.92 292.124 333.64 290.806 333.444 289.507C333.048 286.89 332.682 284.273 332.299 281.655C341.881 284.185 352.068 284.821 361.624 281.921C362.292 281.241 360.066 281.609 359.713 281.506C368.507 275.501 365.881 262.849 365.102 253.737C360.258 222.513 358.55 187.966 339.835 161.322C331.739 150.449 319.869 141.84 306.23 139.903L305.851 139.851C301.863 139.32 297.418 139.149 293.931 136.981C290.01 133.852 288.338 128.07 284.213 128.016C282.85 127.998 280.997 129.721 279.002 130.89C278.854 128.317 277.466 126.146 277.16 124.152L277.135 123.981C276.816 121.655 277.253 119.563 274.543 117.342ZM208.052 200.666C216.747 194.629 239.207 197.662 239.722 198.001C240.854 198.745 241.341 198.811 241.954 199.777C242.558 199.857 243.162 199.94 243.766 200.026C244.976 200.421 244.079 201.91 242.681 201.379C243.522 205.004 241.046 207.583 240.061 211.167C239.741 212.331 240.049 214.424 240.061 215.613C239.965 217.129 238.288 218.92 238.567 220.441C239.561 225.849 244.954 231.124 242.681 236.369C241.174 239.331 236.644 240.841 233.632 241.848C227.391 244.242 216.517 241.758 212.891 236.369C210.957 233.494 208.717 226.243 207.563 223.994L207.308 220.426C206.678 211.557 206.117 202.01 208.052 200.666Z" fill="#EDB98A"/>
<path fill-rule="evenodd" clip-rule="evenodd" d="M284.534 128.032L282.046 129.558L267.595 136.698C264.793 137.482 263.392 138.421 263.392 139.516V150.668C263.392 152.16 260.763 155.542 255.505 160.814L250.647 155.974L250.756 155.341C251.218 152.61 251.449 150.784 251.449 149.861C251.449 148.869 246.697 145.103 237.192 138.563L233.034 134.65L233.477 133.303C230.913 133.424 228.132 135.002 227.514 136.981C226.483 138.235 226.436 141.758 225.725 143.444C194.786 148.366 190.089 172.473 186.365 199.841C181.438 227.613 170.255 255.323 175.11 283.901C174.477 284.816 173.979 285.705 173.517 286.761C172.412 288.64 173.836 291.3 176.065 291.197C178.95 290.944 181.806 290.598 184.705 290.49C192.74 290.211 200.783 290.244 208.821 290.347L209.917 290.361C250.429 290.865 290.938 291.858 331.451 292.121C332.92 292.124 333.64 290.806 333.444 289.507C333.048 286.89 332.682 284.273 332.299 281.655C341.881 284.185 352.068 284.821 361.624 281.921C362.292 281.241 360.066 281.61 359.713 281.506C368.507 275.501 365.881 262.849 365.102 253.737C360.258 222.513 358.55 187.966 339.835 161.322C331.739 150.449 319.869 141.84 306.23 139.903L305.851 139.851L305.47 139.802C301.582 139.307 297.308 139.08 293.931 136.981C290.113 133.934 288.428 128.373 284.534 128.032ZM249.907 193.486C251.324 193.486 254.227 195.686 258.615 200.086L259.002 200.264C264.307 202.727 267.821 204.863 269.545 206.673L269.606 206.738C271.348 208.605 274.796 213.57 279.951 221.632L287.417 226.044H290.242L292.253 240.624L287.417 251.034L276.463 247.346L258.615 242.645L248.374 232.261L242.597 230.322C243.298 232.346 243.552 234.36 242.681 236.369C241.174 239.331 236.644 240.841 233.632 241.848C227.391 244.242 216.517 241.758 212.891 236.369C210.957 233.494 208.717 226.243 207.563 223.994L207.233 219.359C206.637 210.807 206.194 201.956 208.052 200.666C216.747 194.629 239.207 197.662 239.722 198.001C240.854 198.745 241.341 198.811 241.954 199.777L242.271 199.819L240.488 197.403L241.119 197.067C245.623 194.68 248.552 193.486 249.907 193.486ZM242.681 201.379C243.486 204.85 241.251 207.361 240.195 210.714L242.895 205.548L242.895 201.446C242.825 201.428 242.753 201.406 242.681 201.379Z" fill="#9DDADB"/>
<path fill-rule="evenodd" clip-rule="evenodd" d="M285.727 127.493C285.127 126.962 284.239 127.629 284.62 128.347C285.478 129.96 286.357 131.488 287.507 132.914C288.205 133.778 288.952 134.596 289.709 135.404C287.766 137.084 286.099 139.17 284.526 141.125C282.513 143.625 280.611 146.231 278.352 148.519C276.124 150.775 273.66 152.352 270.682 153.404L270.08 153.613C267.088 154.663 263.89 156.081 262.204 158.912C261.871 159.47 262.541 160.16 263.104 159.812C266.034 157.998 269.478 157.633 272.668 156.435C275.75 155.278 278.436 153.496 280.809 151.222C283.179 148.952 285.169 146.37 287.244 143.842C289.296 141.342 291.506 139.207 293.933 137.092C297.679 139.611 301.955 140.707 306.303 141.783L306.777 141.901C311.13 142.978 315.46 144.229 319.544 146.104C323.145 147.758 326.686 149.732 329.619 152.423C332.732 155.279 335.156 158.926 337.374 162.493C342.335 170.472 345.822 179.214 348.893 188.063C352.087 197.266 354.758 206.654 356.914 216.153C358.011 220.985 358.902 225.851 359.634 230.752C359.987 233.112 360.3 235.477 360.574 237.847C360.868 240.379 360.935 242.983 361.712 245.416C362.045 246.459 362.832 246.892 363.619 246.855L363.779 248.854C363.991 251.519 364.189 254.184 364.256 256.865C364.366 261.324 364.316 265.769 363.995 270.218L363.95 270.824C363.698 274.071 363.134 277.719 360.691 280.097C358.161 282.559 354.271 283.333 350.861 283.378C342.919 283.481 335.274 279.731 328.246 276.441C321.008 273.052 313.968 269.291 307.097 265.212C303.597 263.135 300.136 260.989 296.718 258.779C295.041 257.695 293.376 256.592 291.723 255.472C290.777 254.83 289.88 254.127 288.916 253.557C289.388 253.118 289.599 252.427 289.203 251.824C291.989 249.407 293.149 245.094 293.284 241.605C293.394 238.788 292.979 235.979 292.652 233.189C292.486 231.782 292.282 230.378 292.071 228.977C291.987 228.424 291.923 227.832 291.825 227.248C299.348 231.379 307.081 235.058 315.019 238.327C319.088 240.002 323.209 241.509 327.386 242.889L328.233 243.168C332.192 244.463 336.245 245.686 340.337 246.426C340.556 246.466 340.734 246.143 340.5 246.04C336.512 244.281 332.386 242.798 328.338 241.178L327.673 240.908C327.749 240.903 327.828 240.893 327.911 240.873C330.285 240.3 332.64 239.418 334.969 238.675C337.13 237.985 339.558 237.552 341.578 236.511C341.733 236.431 341.646 236.215 341.495 236.205C339.224 236.048 336.76 236.709 334.534 237.098L333.698 237.244C332.297 237.491 330.865 237.756 329.471 238.103C329.421 237.636 329.16 237.167 328.789 236.892C324.704 233.869 325.119 227.763 324.682 223.261L324.358 219.918C323.788 214.068 323.185 208.218 322.27 202.412C322.221 202.102 321.741 202.191 321.739 202.483C321.692 209.681 322.235 216.846 322.508 224.032L322.55 225.211C322.701 229.646 322.819 234.25 325.613 237.662C325.222 237.434 324.694 237.434 324.377 237.81C323.988 238.273 323.764 238.792 323.771 239.302C321.246 238.244 318.732 237.158 316.23 236.051C308.186 232.489 300.311 228.504 292.644 224.191C291.819 223.727 291.035 224.092 290.627 224.704L290.568 224.695C290.558 224.694 290.548 224.693 290.538 224.693L290.48 224.69C290.477 224.69 290.475 224.691 290.473 224.691C289.394 224.098 287.924 224.52 286.997 225.384C286.97 225.411 286.947 225.439 286.923 225.466C285.75 224.94 284.655 224.23 283.662 223.33C281.629 221.488 279.906 219.211 278.405 216.928C275.64 212.722 273.292 208.045 269.557 204.583C266.523 201.77 262.761 200.019 258.814 198.92C258.83 198.805 258.786 198.682 258.707 198.6C258.504 198.393 258.359 198.321 258.097 198.447C258.076 198.457 258.064 198.471 258.055 198.486L257.67 197.828C257.46 197.471 257.244 197.112 257.169 197.018C256.721 196.454 256.26 195.894 255.792 195.346C254.998 194.419 254.094 193.503 253.046 192.86C250.753 191.452 248.342 192.249 245.984 193.018C244.56 193.484 243.14 193.964 241.718 194.436L241.571 194.484C240.51 194.824 239.27 195.122 238.795 196.245C238.608 196.689 238.579 197.151 238.666 197.598C228.594 195.038 217.408 196.214 207.58 199.219C207.203 199.334 206.826 199.644 206.746 200.052C205.62 205.823 205.119 211.742 205.628 217.612C206.068 222.679 207.191 227.644 209.308 232.283L209.429 232.545C211.418 236.844 214.571 242.144 219.387 243.491C222.294 244.305 225.51 243.825 228.476 243.676C231.358 243.531 234.304 243.51 237.158 243.057C239.701 242.654 241.929 241.515 243.5 239.449C244.855 237.666 245.569 235.512 246.154 233.369C246.422 233.454 246.687 233.545 246.949 233.647C248.054 234.078 248.99 234.774 249.836 235.593C251.623 237.322 253.009 239.423 254.878 241.073C256.57 242.567 258.499 243.729 260.567 244.622C264.853 246.473 269.452 247.212 273.985 248.193L274.302 248.262C277.715 249.011 281.199 249.93 284.211 251.706C284.27 252.228 284.509 252.72 284.891 253.042C284.359 253.541 284.134 254.331 284.601 255.072C285.905 257.141 288.152 258.318 290.169 259.641L290.3 259.727C292.284 261.042 294.285 262.33 296.303 263.592C300.405 266.159 304.592 268.584 308.839 270.903C315.669 274.632 322.646 278.149 329.749 281.34C329.322 283.436 329.478 285.598 329.158 287.708L329.109 288.009C328.972 288.792 329.157 289.447 329.696 289.959L329.753 290.011L329.752 290.004L329.803 290.051L329.82 290.065L329.814 290.061C329.877 290.117 329.941 290.17 330.006 290.216L330.089 290.269C330.609 290.585 331.279 290.582 331.811 290.303L331.872 290.269L331.974 290.211C332.677 289.807 333.162 288.805 332.871 288.009C332.153 286.053 331.883 283.966 331.22 281.997L331.746 282.232L332.438 282.533C339.927 285.77 348.245 288.495 356.404 286.289C360.009 285.314 363.379 283.251 365.183 279.889C366.958 276.581 367.209 272.74 367.303 269.061C367.419 264.519 367.176 259.908 366.576 255.405C366.174 252.383 365.687 249.303 364.937 246.312C365.323 245.972 365.607 245.484 365.682 244.879C366.036 242.022 365.416 239.052 365.037 236.21C364.666 233.435 364.256 230.666 363.793 227.905C362.858 222.329 361.772 216.765 360.507 211.255C358.255 201.448 355.283 191.816 351.703 182.413L351.39 181.594C348.083 173 344.253 164.59 338.921 157.04C336.37 153.428 333.674 150.153 330.07 147.55C326.693 145.111 322.885 143.355 318.954 142.013C315.019 140.67 310.975 139.77 306.859 139.21C302.68 138.642 298.268 138.293 294.368 136.579C294.862 135.696 294.438 134.503 293.608 133.955C290.815 132.11 288.231 129.71 285.727 127.493ZM196.299 207.705C196.182 207.527 195.904 207.64 195.955 207.85C197.314 213.413 198.589 218.987 199.422 224.657C200.926 234.889 200.649 245.255 200.526 255.563L200.52 256.096C200.457 261.649 200.369 267.201 200.185 272.752C200.093 275.557 199.909 278.389 200.009 281.196C200.063 282.718 200.469 284.158 200.613 285.662C200.739 286.978 200.627 288.313 200.564 289.63C200.522 290.506 201.815 290.469 201.903 289.63L202.016 288.546C202.162 287.174 202.342 285.81 202.792 284.496C203.334 282.916 203.593 281.365 203.781 279.706C204.069 277.164 204.196 274.597 204.307 272.037L204.383 270.267C204.847 259.57 204.83 248.823 204.08 238.137L204.025 237.374C203.282 227.273 201.993 216.359 196.299 207.705ZM225.261 144.044C225.616 143.898 225.492 143.362 225.099 143.455L224.384 143.626C219.147 144.879 214.005 146.238 209.117 148.57C204.226 150.904 200.085 154.389 196.794 158.674C190.398 167.003 187.74 177.125 185.642 187.238C183.31 198.475 181.187 209.753 178.835 220.987L178.398 223.08C176.221 233.542 174.166 244.011 172.652 254.598L172.543 255.366C171.016 266.252 170.098 277.516 171.764 288.431C172.094 290.591 175.689 290.053 175.549 287.919C175.143 281.751 174.852 275.616 175.133 269.434C175.414 263.252 175.994 257.096 176.859 250.967C177.587 245.809 178.672 240.716 179.632 235.599L179.783 234.791C180.587 230.439 181.416 226.092 182.243 221.744L183.479 215.234C185.331 205.487 187.22 195.731 189.354 186.045L189.481 185.475C191.569 176.156 194.649 166.395 200.913 158.995C207.271 151.485 216.371 147.703 225.261 144.044ZM248.362 242.886C248.209 242.546 247.674 242.583 247.509 242.886C246.865 244.074 246.794 245.591 246.672 246.932L246.659 247.07C246.504 248.706 246.367 250.348 246.283 251.99C246.124 255.106 246.048 258.218 246.057 261.338C246.067 264.535 246.132 267.728 246.304 270.921L246.351 271.776C246.509 274.551 246.773 277.645 248.092 280.07C248.571 280.952 249.875 280.693 250.153 279.801C251.063 276.882 250.595 273.42 250.362 270.43L250.181 268.096C250.001 265.763 249.83 263.428 249.695 261.092C249.509 257.895 249.355 254.696 249.208 251.498C249.16 250.459 249.108 249.42 249.053 248.382L248.969 246.824C248.897 245.521 248.903 244.091 248.362 242.886ZM350.659 247.024L350.256 246.636C349.019 245.426 347.457 243.564 345.629 243.68C344.9 243.726 344.436 244.33 344.587 245.047C344.91 246.579 346.474 247.374 347.599 248.309C348.832 249.334 349.995 250.428 351.154 251.534C352.184 252.514 353.173 253.522 354.139 254.562L354.5 254.953C354.846 255.33 357.312 257.559 357.045 258.137L357.031 258.163C356.957 258.274 357.08 258.426 357.203 258.387C358.268 258.051 358.202 257.139 357.799 256.215C357.026 254.44 355.671 252.797 354.488 251.281C353.309 249.769 352.032 248.36 350.659 247.024ZM244.503 202.499C245.327 200.554 248.36 200.595 250.082 200.712C254.418 201.004 259.109 202.101 262.967 204.126C266.967 206.226 269.661 209.591 272.072 213.311L272.185 213.486C274.535 217.136 276.798 221.457 280.477 223.967C282.351 225.246 284.539 226.413 286.813 226.919C286.969 227.194 287.222 227.411 287.554 227.49L287.708 227.525C288.355 227.668 289.361 227.826 290.23 227.731C290.225 228.156 290.229 228.578 290.218 228.98C290.188 230.134 290.175 231.292 290.175 232.447C290.174 234.865 290.304 237.288 290.203 239.706C290.114 241.845 289.812 244.08 288.784 245.992C288.03 247.395 287.036 248.323 285.835 249.21C282.881 247.41 279.54 246.314 276.15 245.489C272.05 244.492 267.853 243.826 263.846 242.474C261.917 241.823 260.063 240.971 258.384 239.814C256.601 238.586 255.239 236.923 253.838 235.297L253.619 235.045C252.189 233.406 250.629 231.838 248.608 230.949C246.868 230.184 244.575 230.047 243.053 228.863C242.257 228.243 242.191 227.344 242.107 226.423C243.082 226.563 244.113 226.339 245.084 226.226L245.588 226.167C246.506 226.058 247.403 225.938 248.307 225.704C248.475 225.661 248.475 225.408 248.307 225.364C247.239 225.089 246.18 224.971 245.084 224.843L244.827 224.811C243.836 224.681 242.794 224.485 241.822 224.703C241.648 224.04 241.396 223.406 241.042 222.772C240.546 221.881 239.608 220.871 239.481 219.83C239.443 219.519 239.515 219.153 239.662 218.878L239.713 218.784C239.774 218.674 239.847 218.562 239.954 218.494C239.966 218.507 239.991 218.523 240.045 218.54C240.793 218.776 241.446 218.41 241.793 217.846C243.263 218.028 244.868 217.966 246.247 218.027L247.641 218.095C249.131 218.163 250.688 218.193 252.088 217.892C252.284 217.85 252.343 217.525 252.147 217.441C250.426 216.706 248.338 216.471 246.496 216.189C245.467 216.03 244.43 215.91 243.398 215.771C242.711 215.679 241.981 215.525 241.269 215.489C239.484 213.268 240.446 209.764 242.93 208.807C243.835 209.205 244.649 208.974 245.638 208.889C246.625 208.804 247.615 208.747 248.606 208.751C250.591 208.76 252.696 209.282 254.662 209.057C254.982 209.02 255.279 208.595 254.961 208.335C253.456 207.108 251.299 206.707 249.388 206.446L248.992 206.393C248.351 206.309 247.572 206.186 246.764 206.114C246.581 205.757 246.254 205.488 245.761 205.421C245.615 205.401 245.468 205.389 245.321 205.377L245.323 205.362C244.122 205.305 244.174 203.277 244.503 202.499ZM326.73 240.43C326.751 240.462 326.774 240.494 326.799 240.524L326.837 240.568L326.639 240.487L326.73 240.43ZM223.545 198.154C228.6 197.611 233.663 197.725 238.733 197.871C239.139 199.197 240.55 200.326 241.918 200.369C240.847 201.998 240.736 204.204 241.487 205.932C239.892 206.566 238.518 207.706 237.684 209.329C236.528 211.579 236.679 214.083 237.822 216.163C236.846 217.045 236.271 218.479 236.328 219.83C236.393 221.337 237.291 222.624 238.038 223.871C238.845 225.22 238.872 226.408 239.12 227.919C239.482 230.131 240.975 231.472 242.895 232.309L242.793 232.711C242.298 234.636 241.682 236.668 240.267 238.077C238.447 239.888 235.623 239.871 233.218 239.986L233.102 239.992C230.9 240.102 228.699 240.231 226.498 240.355L224.847 240.448C222.313 240.587 219.879 240.604 217.81 238.929C214.432 236.196 212.116 231.672 210.651 227.668C207.574 219.262 207.537 210.038 208.95 201.284C213.685 199.758 218.599 198.685 223.545 198.154ZM265.586 212.099L265.549 212.101C264.508 212.22 263.793 213.062 263.538 214.062C263.168 215.514 263.35 216.827 262.46 218.138C261.544 219.486 260.981 220.566 260.848 222.231C260.794 222.916 260.819 223.6 260.666 224.271L260.555 224.741C260.438 225.242 260.342 225.725 260.4 226.263C260.454 226.753 260.693 227.136 261.185 227.293C262.79 227.806 264.029 226.624 264.444 225.13C264.802 223.839 264.324 222.3 264.829 221.088C265.109 220.416 265.625 219.853 265.917 219.177C266.206 218.506 266.351 217.806 266.397 217.077C266.485 215.698 265.265 214.042 265.946 212.792C266.091 212.526 265.927 212.091 265.586 212.099ZM286.904 197.871C285.817 197.651 284.584 197.145 283.512 197.565C282.961 197.782 282.689 198.453 283.155 198.92C283.963 199.729 285.137 199.774 286.226 199.965L286.321 199.982C287.608 200.22 288.898 200.446 290.189 200.66C292.618 201.062 295.052 201.417 297.496 201.72C300.005 202.03 302.521 202.306 305.041 202.514L306.017 202.594C308.145 202.764 310.36 202.893 312.449 202.567C312.752 202.519 312.703 202.078 312.449 202C310.161 201.308 307.651 201.123 305.285 200.83C302.77 200.518 300.26 200.189 297.756 199.798C295.256 199.408 292.759 198.989 290.271 198.526C289.147 198.317 288.024 198.099 286.904 197.871ZM247.69 195.649C248.644 195.312 249.693 194.812 250.726 194.979C252.509 195.268 254.095 197.003 255.505 198.146L254.797 198.008C251.173 197.312 246.374 196.562 243.331 198.865C243.324 198.851 243.318 198.838 243.309 198.825C243.063 198.452 242.779 198.161 242.468 197.842C242.439 197.814 242.41 197.786 242.382 197.756L242.214 197.578L242.597 197.445C243.418 197.155 244.39 196.781 244.544 196.726L244.555 196.722C245.601 196.368 246.649 196.018 247.69 195.649ZM277.466 119.732C277.616 117.815 274.63 117.831 274.482 119.732C274.16 123.883 275.094 127.994 277.106 131.633C277.121 131.66 277.137 131.683 277.153 131.708C275.894 132.362 274.622 132.99 273.321 133.551C271.657 134.269 269.962 134.923 268.236 135.478C266.675 135.979 264.752 136.178 263.44 137.222C260.672 139.424 261.712 143.995 262.244 146.957L262.328 147.425C262.593 148.95 262.784 150.514 262.141 151.977C261.454 153.54 260.066 154.699 258.827 155.817L258.577 156.044C257.479 157.043 256.225 158.257 255.42 159.612C254.685 158.093 253.683 156.853 252.624 155.456C251.868 154.459 252.406 154.13 252.949 153.156C253.472 152.219 253.727 151.22 253.563 150.15C253.262 148.175 251.683 146.749 250.111 145.677C248.254 144.412 246.182 143.474 244.263 142.297C240.319 139.879 236.479 137.114 233.019 134.043C232.923 133.959 232.758 134.07 232.834 134.186C235.568 138.341 238.773 141.931 242.711 144.978C244.308 146.214 245.986 147.239 247.675 148.316L248.161 148.628C248.839 149.067 249.685 149.654 249.991 150.401C250.3 151.153 249.642 151.72 249.288 152.343C248.163 154.321 248.706 156.166 250.039 157.843L250.101 157.92C251.426 159.552 252.43 161.069 252.91 163.154C253.942 167.632 252.505 172.296 251 176.5L250.941 176.666C250.127 178.932 249.262 181.181 248.555 183.483L248.361 184.12C247.72 186.238 247.195 188.327 247.914 190.505C248.158 191.246 249.169 191.421 249.589 190.724C251.07 188.265 251.439 185.307 252.368 182.604C253.272 179.97 254.311 177.384 255.185 174.739C256.311 171.333 257.064 167.668 256.655 164.096C256.667 164.075 256.68 164.055 256.69 164.033L256.977 163.407C257.758 161.711 258.512 160.23 259.933 158.879C261.415 157.469 263.023 156.221 264.189 154.514C266.722 150.806 265.155 146.682 264.85 142.628L264.815 142.131C264.759 141.289 264.729 140.145 265.279 139.563C265.897 138.907 267.349 138.74 268.17 138.449C270.292 137.699 272.383 136.824 274.374 135.774C276.27 134.775 278.107 133.671 279.816 132.377L280.683 131.726C282.05 130.695 283.468 129.569 284.385 128.165C284.491 128.003 284.311 127.743 284.119 127.82C282.589 128.441 281.192 129.427 279.76 130.286C279.738 130.234 279.712 130.181 279.683 130.128C277.912 126.925 277.183 123.376 277.466 119.732ZM228.596 141.679C227.987 140.008 225.209 140.137 225.319 142.122C225.404 143.647 226.052 145.024 226.645 146.408L226.708 146.556C227.319 147.999 228.026 149.353 228.871 150.676C230.486 153.203 232.377 155.549 234.398 157.762C236.229 159.769 238.633 160.996 241.404 160.792C242.571 160.706 243.749 160.41 244.772 159.827C245.987 159.135 247.306 157.056 248.856 157.559C249.006 157.608 249.146 157.388 249.016 157.284C247.227 155.844 245.196 158.077 243.483 158.615C240.902 159.426 238.253 158.53 236.591 156.444C234.856 154.267 233.26 151.829 231.802 149.458C231.062 148.254 230.386 147.004 229.803 145.717C229.214 144.417 229.08 143.004 228.596 141.679ZM232.757 131.398C232.832 131.168 232.546 130.948 232.343 131.08C231.167 131.845 230.148 132.856 229.064 133.742C227.861 134.724 226.648 135.687 225.418 136.635C223.623 138.018 225.704 140.563 227.284 139.053C229.445 136.987 231.813 134.286 232.757 131.398ZM239.212 123.313C238.735 121.472 235.91 122.231 236.321 124.05L236.335 124.106C237.115 127.111 236.004 130.17 233.633 132.118L233.546 132.189C232.046 133.389 234.171 135.486 235.656 134.298C238.898 131.704 240.247 127.3 239.212 123.313Z" fill="black"/>
<path fill-rule="evenodd" clip-rule="evenodd" d="M214.89 64.7121C215.819 57.2924 218.735 49.4146 221.802 42.4974C228.698 27.8723 244.487 25.8587 258.641 22.8433C272.608 20.8069 287.398 18.968 301.155 23.0312C308.888 24.9287 311.909 34.1532 310.688 41.4326C309.992 45.9687 307.93 50.2619 306.172 54.4658C302.678 63.0992 300.461 72.342 300.457 81.6893C300.697 87.7977 301.558 94.7698 294.549 97.3571C287.879 100.679 287.316 109.683 278.964 114.792C275.587 121.643 266.389 122.246 259.768 123.835C255.583 124.637 251.352 125.228 247.108 125.609C234.821 127.186 224.992 123.62 218.56 112.658C214.256 105.987 211.051 98.2837 211.843 90.1984C212.631 81.6842 213.945 73.2147 214.89 64.7121Z" fill="#EDB98A"/>
<path fill-rule="evenodd" clip-rule="evenodd" d="M258.535 5.06899C257.834 4.27293 256.753 4.54596 256.097 5.17544C255.67 5.30144 255.257 5.48881 254.866 5.73679C253.983 5.62332 253.058 5.62332 252.192 5.65513C251.982 5.53715 251.757 5.4322 251.511 5.34202C249.761 4.70102 248.21 5.02665 246.931 5.88483C246.315 5.30119 245.538 4.93497 244.545 4.99033C243.658 5.03993 243.026 5.45775 242.485 6.00807C241.945 5.2283 241.072 4.67196 239.985 4.59456C238.465 4.48635 237.004 5.09679 235.793 6.04189C235.087 5.2313 234.125 4.76539 233.053 4.76088C232.348 4.63263 231.604 4.68323 230.931 4.88663C229.955 5.18196 229.097 5.73529 228.414 6.45344C227.334 5.41742 226.012 4.67196 224.487 4.78067C222.514 4.92345 220.878 6.37654 220.118 8.16503C218.782 8.70083 217.549 9.46507 216.519 10.5547C216.464 10.6121 216.411 10.6722 216.356 10.7325C215.801 10.9377 215.278 11.2285 214.818 11.6115C213.36 12.8266 213.035 14.5851 213.517 16.3082C213.45 16.584 213.392 16.8645 213.34 17.1448C211.974 17.3527 210.734 18.142 210.028 19.427C209.063 21.1905 209.253 23.5148 210.299 25.1983C210.748 25.9225 211.319 26.5327 211.959 27.0662C211.235 28.7144 211.582 30.6813 212.751 32.0144C213.035 32.474 213.385 32.8888 213.778 33.2643C213.344 34.9684 214.116 36.7266 215.656 37.6371L215.788 37.9674C215.81 38.0223 215.833 38.077 215.856 38.1311C215.873 38.2012 215.894 38.2691 215.915 38.3375C215.952 38.9422 216.15 39.5356 216.545 40.0947C217.353 41.2405 218.355 41.9876 218.886 43.3252L218.939 43.4657C219.167 44.0987 219.904 44.5453 220.533 44.35C217.044 51.5242 215.216 59.5071 213.96 67.3304C213.334 71.2333 212.851 75.1496 212.459 79.0811L212.075 82.9961C211.737 86.476 211.436 89.9674 211.434 93.4589C211.429 101.357 213.685 108.954 218.527 115.239C223.107 121.181 229.587 125.486 236.908 127.182C244.466 128.931 253.332 128.242 260.11 124.239C262.109 123.062 260.358 120.231 258.324 121.178C254.475 122.972 250.564 124.304 246.297 124.602C242.137 124.895 237.968 124.374 234.024 123.012C227.499 120.755 221.946 116.028 218.377 110.142C216.619 107.241 215.346 104.092 214.668 100.766C213.824 96.6194 213.951 92.3337 214.261 88.1344L214.283 87.8482C214.896 79.7571 215.703 71.6162 217.009 63.6058C218.163 56.5222 219.937 49.5822 222.241 42.7957C223.144 42.0001 224.153 41.3418 225.233 40.8419C233.143 40.511 241.068 40.6077 248.968 41.1542C255.705 41.6234 262.41 42.4172 269.064 43.5741L269.777 43.6994C271.25 43.9622 272.886 44.1125 274.274 44.7064C275.464 45.2174 275.947 46.1993 276.247 47.4064C277.002 50.4599 277.118 53.8017 277.245 56.9328C277.37 59.9935 277.088 63.0798 277.333 66.1305C277.54 68.683 278.193 71.2956 280.081 73.1419C281.069 74.1086 282.285 74.6371 283.425 75.371C284.163 75.8447 284.476 76.3329 284.381 77.2096C284.176 79.1284 282.632 81.5456 284.366 83.1888C284.671 83.4769 285.199 83.5145 285.499 83.1888C286.214 82.4101 287.202 81.8161 288.05 81.1874C288.405 80.9272 288.11 80.4212 287.707 80.6013C287.177 80.8395 286.637 81.12 286.084 81.3655C287.304 80.3585 289.04 79.8648 290.486 79.5718C291.214 79.4265 291.979 79.3839 292.737 79.4518C293.297 79.7195 293.87 79.9678 294.443 80.2105C295.17 80.5163 295.906 80.7941 296.646 81.0574C299.215 83.1538 300.44 86.5632 299.905 89.8972C299.612 91.738 298.764 93.7397 297.166 94.8143C295.273 96.0868 292.737 95.5404 290.691 96.485C288.775 97.369 287.61 99.1553 286.737 101.004L286.373 101.774C285.563 103.478 284.73 105.136 283.623 106.687C282.342 108.483 280.774 110.096 279.063 111.482C278.233 112.152 277.349 112.755 276.435 113.305L276.185 113.453C275.259 113.997 274.596 114.515 274.534 115.665C274.514 116.066 274.767 116.431 275.092 116.639C276.492 117.528 277.885 116.416 279.051 115.64C280.309 114.803 281.512 113.861 282.625 112.834C284.741 110.886 286.572 108.571 287.98 106.058C289.053 104.145 289.663 101.452 291.359 99.9693C292.394 99.0648 293.857 99.0576 295.15 98.892C296.353 98.7369 297.491 98.4865 298.562 97.8928C302.916 95.4706 304.147 89.6066 303.114 85.0753C302.939 84.311 302.694 83.5671 302.391 82.8507C304.012 83.1212 305.832 81.4432 305.175 79.7496C305.125 79.6219 305.067 79.5019 305.012 79.3789C306.08 78.675 306.923 77.6082 307.323 76.2127C307.528 75.4913 307.558 74.7624 307.451 74.0585C307.968 73.7106 308.396 73.2319 308.671 72.6432C309.532 72.2449 310.294 71.649 310.75 70.7974C311.38 69.6223 311.3 68.5402 310.82 67.5658C310.887 67.4433 310.952 67.3181 311.015 67.1901C312.778 66.0706 314.009 64.1416 313.868 62.0024C313.823 61.2936 313.648 60.6548 313.378 60.0789C313.401 60.0063 313.423 59.9309 313.443 59.8583C314.919 59.1068 316.139 57.8721 316.575 56.2239C317.01 54.5654 316.497 52.9122 315.472 51.6397C316.972 50.5403 317.875 49.0048 317.327 46.6825C317.105 45.7384 316.657 44.879 316.052 44.1551C316.054 44.1328 316.059 44.1102 316.064 44.0875L316.205 43.9784C318.057 42.5143 319.122 40.6485 317.985 38.3538C317.475 37.322 316.747 36.6028 315.892 36.1294L315.849 35.9941C316.462 34.6791 316.67 33.2187 316.247 31.6832C315.902 30.4185 315.084 29.4113 314.039 28.7427C314.109 28.1764 314.099 27.5729 313.986 26.9189C313.798 25.8145 313.251 24.8501 312.45 24.1663C312.42 24.0208 312.383 23.8782 312.34 23.7352C312.07 22.8612 311.565 21.9119 310.98 21.2078C310.497 20.6241 309.957 20.4112 309.296 20.3887C309.336 19.8504 309.309 19.304 309.199 18.7505C308.861 17.0424 307.776 15.4365 306.168 14.7076C305.507 14.4095 304.812 14.3221 304.142 14.3945C303.571 13.1921 302.459 12.3207 301.09 12.1328C300.558 12.0576 300.062 12.0624 299.607 12.1303C299.35 12.0098 299.082 11.9023 298.802 11.8044C298.617 11.7393 298.429 11.6791 298.242 11.6193C297.609 10.8327 296.776 10.2038 295.803 9.82578C294.68 9.38742 293.537 9.43226 292.524 9.80048L292.202 9.73285C291.696 8.85613 290.891 8.17731 289.653 7.86921C288.247 7.52103 286.804 8.00697 285.699 8.89145C285.694 8.89145 285.689 8.89145 285.681 8.8887C285.103 7.59367 284.116 6.69191 282.457 6.75453C281.424 6.79461 280.491 7.30836 279.771 8.03979C279.371 7.98944 278.971 7.94435 278.568 7.89952C278.143 7.40079 277.67 6.93513 277.148 6.51681C276.292 5.83022 275.179 5.88558 274.549 6.85222C274.411 7.06263 274.284 7.27555 274.156 7.48846L273.578 7.44838C272.898 6.52909 271.97 5.90787 270.7 5.85803C269.534 5.81018 268.704 6.38155 268.071 7.18036C267.556 7.16784 267.038 7.15807 266.52 7.1503C265.918 6.45144 265.207 5.83523 264.397 5.32423C263.777 4.93347 262.861 5.06648 262.359 5.5875C262.019 5.94169 261.703 6.31141 261.409 6.69416C260.651 5.8435 259.628 5.28315 258.535 5.06899ZM295.345 84.6118C294.177 83.9455 292.607 84.6669 291.476 85.233C290.098 85.9218 288.73 86.9613 287.887 88.2639C286.739 90.0373 289.438 91.4701 290.646 89.8795C291.389 88.9001 291.981 87.9132 292.882 87.0565C293.705 86.27 294.898 85.744 295.37 84.7069C295.388 84.6719 295.383 84.6318 295.345 84.6118ZM294.525 41.565L294.503 41.5024C294.171 40.5924 295.621 40.2001 295.95 41.1026C296.449 42.4705 295.874 43.9577 294.525 44.5484C294.151 44.7122 293.723 44.6553 293.498 44.2788C293.309 43.962 293.397 43.4129 293.767 43.2508C294.526 42.9184 294.781 42.3316 294.525 41.565ZM307.013 39.0203C306.288 38.3791 307.352 37.3192 308.074 37.9577C308.748 38.5534 309.248 39.3625 309.118 40.293C308.986 41.2414 308.272 41.9109 307.49 42.3841C306.662 42.8859 305.907 41.5868 306.733 41.0863L306.826 41.0295C307.172 40.8138 307.578 40.5172 307.637 40.0929C307.699 39.642 307.318 39.2901 307.013 39.0203ZM302.895 27.7052L302.843 27.6674C302.064 27.1103 302.812 25.8062 303.601 26.3696C304.324 26.8864 304.903 27.5577 304.964 28.4835C305.024 29.3832 304.566 30.1633 303.969 30.7962C303.304 31.5004 302.244 30.4363 302.907 29.7337C303.554 29.0489 303.681 28.3016 302.895 27.7052Z" fill="black"/>
<path fill-rule="evenodd" clip-rule="evenodd" d="M245.484 97.3326C244.082 95.0276 241.093 100.674 240.776 101.645C240.494 102.505 240.309 103.386 240.214 104.277C239.127 104.521 237.999 104.521 236.885 104.308C235.23 103.99 234.218 103.101 232.779 102.337C231.785 101.81 230.533 102.429 230.016 103.304C229.408 104.334 229.795 105.403 230.595 106.171C232.111 107.627 235.094 107.962 237.073 107.575C238.207 107.354 239.246 106.929 240.164 106.311C240.17 106.426 240.174 106.542 240.183 106.657L240.201 106.856C240.353 108.471 240.797 110.502 242.052 111.553C244.111 113.277 246.652 109.962 244.651 108.24L244.589 108.188C243.346 107.184 243.075 104.49 243.141 103.006C243.185 102.038 243.362 101.057 243.668 100.134L243.731 99.9507C243.823 99.6902 244.827 97.2185 245.19 97.5333L245.207 97.551C245.357 97.7296 245.599 97.5216 245.484 97.3326ZM234.289 84.3259C232.397 85.4756 229.513 88.1567 231.549 91.007C233.946 93.5203 237.396 90.6387 239.097 89.3354C240.673 88.3254 242.445 90.9231 240.982 92.1025C228.695 101.194 223.708 84.6265 233.332 82.9741C234.392 82.792 234.785 83.9702 234.289 84.3259ZM254.5 73.6984C252.65 73.3705 250.755 73.8302 249.224 74.9118L249.108 74.9952C247.634 76.073 245.984 77.9655 246.83 79.8234C247.17 80.5693 248.187 80.6863 248.832 80.3482C249.907 79.7851 250.101 78.3996 251.06 77.6329C251.846 77.0044 252.905 76.6231 253.918 76.7151C256.296 76.931 257.76 79.2758 258.498 81.2965C258.593 81.555 258.973 81.6555 259.121 81.3779C260.863 78.1236 257.779 74.2801 254.5 73.6984ZM224.872 72.4703C221.328 72.1784 217.181 75.8496 218.114 79.5874C218.561 81.3809 221.223 81.3296 221.697 79.5874C221.957 78.6288 221.931 77.7806 222.621 76.9846C223.191 76.3273 224.001 75.9456 224.872 76.0042C225.831 76.0688 226.716 76.548 227.389 77.2216C227.996 77.8297 228.359 78.7197 228.988 79.258C229.143 79.3903 229.35 79.3988 229.503 79.258C230.586 78.2603 229.936 76.1833 229.249 75.1417C228.267 73.6513 226.667 72.6183 224.872 72.4703ZM261.247 67.0692C258.974 65.0582 254.844 63.1162 251.779 64.1059C250.016 64.6747 249.248 67.5125 251.215 68.412C253.493 69.4536 256.12 69.0297 258.439 70.1094C259.412 70.563 260.328 71.1298 261.006 71.9612C261.54 72.6165 262.084 73.4787 262.856 73.8564C263.059 73.9559 263.334 73.9584 263.497 73.774C265.19 71.8598 262.725 68.377 261.247 67.0692ZM228.778 64.0061C227.374 63.612 225.815 63.6201 224.388 63.8675C222.961 64.115 221.513 64.7059 220.348 65.5679L220.213 65.6688C218.942 66.6264 217.424 68.0196 217.506 69.716C217.573 71.1325 219.065 72.0906 220.352 71.3482C221.401 70.7427 221.895 69.5299 222.783 68.7223C223.517 68.0557 224.378 67.5302 225.297 67.162C226.317 66.7529 227.34 66.5613 228.435 66.543C229.278 66.529 230.127 66.8055 230.954 66.894C230.886 67.0337 231.54 66.9686 231.915 66.8446C232.193 66.7264 232.194 66.3754 232.098 66.1477C231.621 65.0198 229.884 64.3157 228.778 64.0061Z" fill="black"/>
<path fill-rule="evenodd" clip-rule="evenodd" d="M211.858 85.8515C214.901 88.9939 219.981 89.8956 224.029 88.2103C234.425 83.8696 229.337 70.3307 221.32 66.6948C220.318 66.4453 218.98 65.8534 217.761 65.7192C217.65 65.6651 217.41 65.8216 217.119 65.6736C208.279 66.66 206.266 80.3748 211.858 85.8515ZM245.388 86.6558C248.801 91.1799 255.146 92.5756 260.33 90.4725C270.572 86.4416 266.939 74.4359 259.932 69.7292C245.13 64.1706 239.018 78.3143 245.388 86.6558ZM267.589 76.6317C267.599 76.6272 267.608 76.625 267.618 76.6204C267.564 76.5966 267.51 76.5729 267.456 76.5486C267.473 76.5944 267.492 76.6397 267.509 76.6856C267.536 76.6673 267.559 76.646 267.589 76.6317ZM204.812 71.7414C205.648 71.7432 206.855 71.8804 207.547 72.4598C209.252 66.7103 215.549 61.3892 221.025 65.2693C225.337 66.6552 228.537 69.729 230.356 73.8155C233.635 71.8662 238.791 72.6985 241.634 75.2763C243.496 69.1266 248.08 66.9731 253.535 66.6552C259.489 65.6806 265.423 71.4596 267.275 76.0957C268.815 75.9206 271.115 75.4309 272.564 76.3805C281.964 73.9167 298.4 72.5583 300.311 73.9272C301.673 74.4495 302.421 77.6622 300.518 77.8356C298.86 77.6004 300.712 75.4815 299.041 75.2503C290.137 74.6987 281.494 76.4907 272.685 77.2427C271.898 78.3 269.357 78.6537 268.001 78.2288C270.137 86.0932 265.527 91.4436 258.621 93.0463C247.927 95.5013 238.623 85.9406 241.42 75.9962C238.18 74.3856 234.454 74.4547 230.925 75.3031C236.822 96.993 201.869 96.0198 207.328 73.203C203.695 75.009 202.906 72.1059 204.812 71.7414Z" fill="black"/>
</g>
<path fill-rule="evenodd" clip-rule="evenodd" d="M46.7521 161.548C48.9286 160.772 51.0265 159.877 52.9378 158.559C58.4476 154.46 62.0402 148.292 65.4349 142.448C70.2165 133.948 73.6229 124.891 75.9777 115.442C76.9895 111.383 77.3331 106.676 79.6319 103.077C84.8432 95.5412 100.124 96.5176 108.239 97.8404C113.672 98.8013 114.796 104.879 116.03 109.376C117.057 113.112 117.73 116.891 118.295 120.721C119.638 121.603 121.155 122.32 122.6 122.945C138.355 127.773 141.124 136.724 147.142 150.55C157.305 170.647 184.884 178.515 189.05 202.299C191.734 218.001 184.102 232.773 176.232 245.827C168.904 260.085 158.672 266.928 142.379 263.56C127.096 260.133 112.409 254.402 97.3951 249.973C90.1234 248.186 82.8632 243.539 75.214 245.159C59.4527 248.697 43.2587 250.36 27.1062 249.901C4.42752 250.817 4.43103 229.064 6.7587 212.218C8.38909 186.001 21.6202 169.167 46.7521 161.548Z" fill="#AE5D29"/>
<path fill-rule="evenodd" clip-rule="evenodd" d="M45.2359 199.483C43.3408 200.736 41.747 202.634 40.4675 204.633C45.8091 204.078 51.1414 203.437 56.4619 202.708C55.7654 202.264 55.0624 201.828 54.3433 201.418C51.7199 199.94 48.1654 197.547 45.2359 199.483ZM133.983 215.263C134.962 214.88 135.34 213.389 135.722 212.534C136.918 209.853 138.009 207.127 139.145 204.419C134.833 203.191 130.64 201.828 126.173 201.173C121.37 200.47 116.496 200.3 111.649 200.458C101.83 200.778 92.1031 202.382 82.45 204.101C72.8083 205.819 63.167 207.469 53.4578 208.764C43.9454 210.033 34.4029 210.961 24.8426 211.776C22.9851 211.935 19.888 212.602 18.3942 211.142C17.2114 209.985 17.1731 207.851 18.6531 206.91C19.5749 206.324 20.9106 206.315 21.9638 206.18C23.2901 206.009 24.6218 205.896 25.9562 205.807C26.4998 205.772 27.0434 205.739 27.5873 205.706C23.222 204.061 18.6626 203.164 13.9301 203.414C13.6624 205.038 12.4566 206.71 11.7967 208.05C10.6442 210.39 9.74594 212.758 9.15619 215.302C7.92356 220.619 7.86993 226.138 8.21806 231.561C8.53788 236.083 9.22487 241.085 12.7739 244.287C15.461 246.712 19.2521 247.61 22.7693 247.892C26.8572 248.22 31.0082 247.87 35.0618 247.322C40.7473 246.554 46.4593 245.538 52.033 244.176C62.8281 241.539 73.1754 237.343 82.722 231.654C87.3775 228.88 91.8198 225.759 96.5393 223.09C101.348 220.37 106.465 218.26 111.838 216.95C117.852 215.484 124.137 214.858 130.318 215.22C131.39 215.283 132.94 215.671 133.983 215.263ZM140.951 212.541C140.319 214.59 139.836 216.93 138.487 218.652C137.151 220.358 135.136 220.961 133.048 221.112C130.53 221.295 127.984 221.178 125.461 221.272C120.286 221.464 115.183 222.304 110.236 223.844C105.626 225.28 101.347 227.52 97.2253 230.005C93.4136 232.303 89.7137 234.77 85.9008 237.061C86.9156 237.526 87.9189 238.029 88.9277 238.467C91.0436 239.385 93.1725 240.271 95.311 241.135C99.5279 242.839 103.763 244.501 108.041 246.045C116.667 249.158 125.436 251.878 134.309 254.195C138.542 255.3 142.834 256.591 147.231 256.775C151.13 256.938 154.741 255.836 157.886 253.519C164.408 248.714 169.597 241.778 173.791 234.936C176.284 230.872 178.458 226.601 180.257 222.185C181.167 219.952 181.992 217.684 182.735 215.39C183.083 214.313 183.413 213.23 183.726 212.142C183.864 211.664 183.996 211.184 184.126 210.703C177.457 208.669 170.709 206.833 163.802 205.814C160.114 205.27 156.377 204.994 152.649 205.034C150.799 205.054 148.95 205.154 147.109 205.345C146.118 205.447 145.131 205.58 144.149 205.744C143.743 205.811 143.326 205.911 142.907 205.984C142.268 208.174 141.623 210.361 140.951 212.541ZM3.09002 203.836C2.73061 203.109 2.57898 202.394 2.45015 201.603C2.3519 201 2.09124 200.15 2.31957 199.367C2.57522 198.489 3.27174 197.704 3.77176 196.956C4.32392 196.129 4.87557 195.301 5.42647 194.473C6.52852 192.817 7.62806 191.16 8.72585 189.501C13.209 182.727 17.6616 175.934 22.1212 169.146C26.0787 163.121 29.9696 157.042 34.0477 151.099C37.5348 146.016 41.3357 141.018 46.1089 137.065C52.144 132.067 59.3302 129.713 66.8366 127.876C67.6564 127.026 68.7514 126.561 69.9219 126.655C71.5756 124.781 72.89 123.472 73.4857 121.088C73.7712 119.946 73.6817 116.738 74.7943 116.063C76.1159 115.26 76.8061 116.322 77.1706 117.52C78.3899 121.525 76.9904 126.91 73.7697 130.922C75.1266 135.609 76.9257 142.27 80.1351 146.025C83.5719 150.045 88.3247 151.297 93.4527 151.379C103.232 151.536 113.001 147.904 120.46 141.609C122.728 139.696 124.833 137.559 126.738 135.286C128.167 133.581 129.858 130.949 130.975 128.961C130.975 128.186 131.891 127.375 122.569 126.749C113.247 126.123 112.54 113.366 112.333 111.63C112.164 110.22 111.448 108.032 112.442 106.882C112.864 106.394 113.73 106.315 114.264 106.647C115.273 107.273 115.604 108.874 115.921 109.96C116.365 111.483 117.817 120.933 120.569 122.028C121.857 122.54 123.334 122.549 124.696 122.644C126.379 122.761 128.065 122.847 129.741 123.043C130.359 123.115 131.033 123.315 131.643 123.321C132.04 123.325 132.449 123.132 132.832 122.997C134.127 122.54 135.42 122.882 136.753 123.062C148.542 124.645 160.681 128.259 170.736 134.761C179.599 140.492 185.844 148.735 189.964 158.372C194.168 168.206 196.577 178.841 198.597 189.311C199.273 192.819 199.864 196.343 200.372 199.879C200.862 203.296 201.476 206.789 201.622 210.241C201.681 211.606 201.354 212.875 200.852 214.122C200.286 215.526 198.948 216.08 197.665 216.736C194.848 218.175 191.877 219.292 188.816 220.083C186.946 223.483 185.373 227.015 184.108 230.682C184.577 231.611 184.587 232.998 184.677 233.901C184.901 236.15 184.997 238.41 185.017 240.669C185.057 245.197 184.785 249.72 184.571 254.241C184.355 258.825 183.635 276.916 183.517 279.125C183.426 280.841 183.549 283.241 182.644 284.765C181.254 287.106 177.824 287.028 176.235 285.129C136.753 293.611 62.5395 291.056 32.6499 286.789C28.761 286.233 29.9821 286.849 28.9931 285.867C28.251 285.13 27.6194 283.867 27.4141 282.852C27.1399 281.498 27.5825 280.272 28.3585 279.176C29.1743 278.023 29.323 276.157 29.626 274.787C30.3426 271.548 30.6987 257.323 31.0336 255.746C31.1378 255.255 31.2388 254.736 31.3606 254.216C25.878 254.735 20.1652 254.736 14.9492 252.903C11.9914 251.864 9.2329 250.231 7.1095 247.9C4.53846 245.078 3.10807 241.525 2.37245 237.817C1.42329 233.035 1.22178 228.081 1.40826 223.22C1.66741 217.475 2.62083 211.649 4.98735 206.374C4.20862 205.651 3.55596 204.779 3.09002 203.836Z" fill="black"/>
<path fill-rule="evenodd" clip-rule="evenodd" d="M95.2261 10.8241C81.0247 10.8241 66.3359 21.8486 61.1303 28.8837C55.111 37.0183 50.3627 76.0687 52.5902 89.3194C54.8177 102.57 65.8823 117.013 85.0903 117.013C104.298 117.013 115.988 114.643 116.456 111.201C116.769 108.907 120.992 101.374 129.125 88.6024C137.444 86.259 141.62 82.2887 141.652 76.6913C141.685 71.0939 139.456 67.277 134.965 65.2405C136.566 43.1508 135.351 29.2304 131.319 23.4793C125.271 14.8527 109.427 10.8241 95.2261 10.8241Z" fill="#AE5D29"/>
<path fill-rule="evenodd" clip-rule="evenodd" d="M102.457 7.50288L102.203 7.50399C86.4904 7.60567 70.5096 14.847 61.1614 27.4968L60.8802 27.8817C60.8649 27.9018 60.5853 28.3188 60.5191 28.4376C60.1316 29.1341 59.6752 29.7856 59.325 30.4939C59.0295 31.0951 58.8329 31.7666 58.6156 32.407L58.5497 32.598C57.9917 34.1961 57.5218 35.8093 57.1063 37.45C56.3012 40.6437 55.6735 43.8876 55.0629 47.1239C52.8819 58.7126 51.4558 70.4668 50.7372 82.2364L50.5953 84.6029C50.4504 87.0574 50.3407 89.5225 50.616 91.969C50.9339 94.817 51.7515 97.4898 52.9895 100.07C54.1303 102.449 55.6009 104.654 57.2839 106.68C58.1843 107.765 59.1397 108.819 60.3152 109.613C61.2509 110.245 62.3438 110.66 63.3968 111.061C65.1098 112.775 67.3082 114.07 69.4567 115.104C72.9982 116.805 76.8374 117.744 80.7216 118.215C84.6933 118.693 88.705 118.578 92.6442 117.895C96.4083 117.243 100.443 115.578 102.761 112.404C102.961 112.131 102.589 111.873 102.344 111.986C95.6155 115.104 88.055 115.918 80.7216 114.934C77.3003 114.475 73.9339 113.529 70.8098 112.058C68.1736 110.818 65.9504 109.015 63.5844 107.382C63.1239 106.768 62.659 106.164 62.1285 105.603L61.3009 104.734C60.6824 104.081 60.075 103.419 59.5226 102.705C57.8166 100.503 56.4038 98.0058 55.4706 95.3781C53.6559 90.2633 54.1467 84.7111 54.4674 79.3807L54.4952 78.911C54.8253 73.2098 55.3633 67.5287 56.1084 61.8677C56.854 56.1991 57.8019 50.5531 58.9221 44.9471C59.4749 42.1842 60.0954 39.4389 60.6429 36.676C60.9257 35.2507 61.1231 33.8054 61.3382 32.3651C61.4685 31.4883 61.466 30.6442 61.4685 29.7875C61.4932 29.8276 61.5235 29.8652 61.5535 29.9027C61.4632 30.1157 61.5257 30.3887 61.7458 30.5139C62.5787 30.9899 63.5391 30.8296 64.477 30.8321C65.4727 30.8371 66.4681 30.8396 67.4636 30.8421C68.5003 30.8458 69.537 30.8458 70.5737 30.8443L73.6838 30.8371L86.1241 30.7995C94.2713 30.775 102.557 31.0995 110.677 30.3303L111.298 30.269C111.936 30.1954 119.137 29.3133 121.085 29.0855L121.144 29.0786C124.703 28.6678 128.212 28.0591 131.671 27.1474C130.541 27.6007 129.453 28.2119 128.332 28.6753C126.887 29.2715 125.404 29.7925 123.92 30.291C120.876 31.3155 117.828 32.3099 114.797 33.367C113.927 33.6696 111.953 41.1261 111.455 42.3057L111.44 42.3395C111.187 42.9081 110.84 43.5319 111.032 44.1781C111.457 45.6059 113.711 46.663 114.829 47.4696L115.978 48.3002L117.481 49.3893C118.098 49.8316 118.667 50.17 119.474 49.9168C119.476 49.9143 119.478 49.9143 119.481 49.9143C118.791 53.1231 118.455 63.5009 118.353 65.3219C118.263 66.9075 117.798 68.939 118.538 70.3843C118.713 70.7275 119.168 70.998 119.556 70.9705C121.247 70.8427 122.937 70.7175 124.628 70.5922C125.081 70.5572 125.494 70.2991 125.619 69.8382L125.624 69.8132C125.679 69.8282 125.741 69.8182 125.794 69.7631C125.886 69.6704 125.981 69.5802 126.079 69.4926C128.305 67.5037 131.786 67.0127 134.533 68.0473C135.973 68.5883 137.611 69.5001 138.627 70.6824C139.755 71.995 139.997 73.8285 140 75.5043C140.005 78.7356 138.839 82.007 136.461 84.2489C134.276 86.3068 131.456 86.9057 128.619 87.4947L128.315 87.5579C127.667 87.6931 127.462 88.66 127.95 89.0658C126.651 90.3383 125.531 91.8563 124.438 93.2565C122.987 95.1141 121.599 97.0453 120.249 98.9808L119.597 99.9171C117.274 103.237 113.912 107.81 115.374 111.961C115.569 112.519 116.384 112.72 116.702 112.133C117.745 110.205 118.328 108.08 119.319 106.129C120.291 104.215 121.502 102.442 122.702 100.668L123.395 99.6407C124.548 97.9243 125.69 96.1893 126.749 94.4213L127.486 93.1971C128.179 92.0411 128.865 90.8465 129.375 89.6044C132.789 90.4285 136.501 88.5949 138.899 86.1526C141.916 83.0766 143.334 78.5453 142.944 74.2844C142.738 72.0551 142.081 69.8984 140.45 68.2952C140.285 68.1349 140.112 67.9821 139.935 67.8293C139.997 67.7968 140.05 67.7467 140.075 67.6865C141.168 65.0865 141.401 61.9879 141.493 59.1874C141.59 56.2918 141.528 53.3886 141.308 50.498C140.905 45.1976 139.95 39.9248 138.434 34.8299C136.191 27.3002 132.336 19.9283 126.179 14.8759C119.612 9.48719 110.815 7.48891 102.457 7.50288ZM135.143 73.3626C134.215 72.9412 132.769 73.6919 131.943 74.1703L131.889 74.2018C129.45 75.622 127.714 78.0418 126.912 80.722C126.397 82.4504 129.29 83.1392 129.535 81.4459C129.735 80.0657 130.196 78.7732 130.953 77.6184C131.134 77.6786 131.309 77.7562 131.466 77.8564C132.069 78.2472 132.419 78.9185 133.257 78.8183C133.877 78.7456 134.513 78.3148 134.47 77.6034C134.402 76.4286 133.457 75.9602 132.444 75.9001C132.589 75.7705 132.734 75.6422 132.884 75.5186L133.047 75.387C133.233 75.2529 135.215 73.8838 135.272 74.2359L135.273 74.2569C135.27 74.3971 135.458 74.4773 135.553 74.3721C135.936 73.9613 135.58 73.563 135.143 73.3626Z" fill="black"/>
<path fill-rule="evenodd" clip-rule="evenodd" d="M79.1712 98.9129C80.856 98.2259 82.3594 97.0801 83.4584 95.6164C83.8405 95.1075 83.9396 94.5702 83.8594 94.0787C83.7693 93.5261 83.4422 93.0252 82.996 92.6892C82.5485 92.3522 81.9887 92.186 81.4475 92.2708C80.9773 92.3444 80.5091 92.6017 80.1386 93.1354L80.0612 93.2421C79.4078 94.1256 78.5564 94.8505 77.5862 95.3177C76.6511 95.768 75.6053 95.9782 74.523 95.856C72.4618 95.6233 71.0412 94.5092 69.5311 92.9964C69.344 92.8053 69.1567 92.6084 68.9685 92.4082C68.8496 92.2267 68.6847 92.1101 68.5015 92.0489C68.2982 91.981 68.0682 91.9849 67.8575 92.0583C67.6543 92.1292 67.4727 92.2635 67.3509 92.4422C67.2351 92.6121 67.1695 92.822 67.1908 93.0633C67.329 94.6312 68.1492 96.0304 69.3142 97.1291C70.6081 98.3494 72.3233 99.1935 73.938 99.4896C75.717 99.8158 77.5298 99.5821 79.1712 98.9129ZM73.0988 74.7258C71.2062 75.8755 68.3223 78.5565 70.3584 81.4069C72.755 83.9202 76.2057 81.0386 77.9061 79.7353C79.4828 78.7253 81.2543 81.323 79.7914 82.5024C67.5042 91.594 62.5178 75.0264 72.1415 73.3739C73.2011 73.1918 73.5947 74.3701 73.0988 74.7258ZM95.1175 64.1499C94.9084 61.5558 90.9552 60.9667 90.562 63.5337C90.2098 65.8332 90.6244 67.9456 91.6608 70.0159C92.651 71.9938 95.14 71.071 95.3282 69.27C95.5805 66.8558 95.2476 65.7636 95.1175 64.1499ZM65.0251 63.0015C64.474 62.2801 63.6782 61.7876 62.7248 62.0659C59.7459 62.9358 60.6239 67.1623 61.6701 69.2196C62.2385 70.3368 64.076 70.6201 64.9063 69.6364C66.2598 68.0323 66.9079 64.8288 65.1873 63.2487C65.1407 63.167 65.0888 63.0846 65.0251 63.0015ZM91.7027 52.7988L91.2322 52.7165C89.7765 52.4649 87.9666 52.2231 86.9368 53.3927C86.3907 54.0129 86.2027 55.1657 86.9368 55.7593C88.2281 56.8039 89.6558 56.3991 91.2032 56.4875C92.4784 56.5606 93.704 56.7715 94.9324 57.1225C97.6273 57.8922 99.8231 59.2975 102.125 60.8405C102.427 61.0429 102.735 60.6569 102.591 60.3746C101.262 57.7738 98.6875 55.6373 96.1084 54.335C94.7319 53.6399 93.2256 53.0633 91.7027 52.7988ZM67.7406 51.6337L67.3804 51.7074C63.4611 52.5261 58.3691 54.1617 56.5131 58.009C56.4424 58.5531 56.5171 58.6697 56.5779 58.7459L56.5981 58.7712C56.6482 58.8363 56.6881 58.9259 56.9241 59C56.9896 58.9844 57.0557 58.9679 57.1225 58.9504C57.9733 58.7276 58.6464 58.4206 59.298 58.1021L60.0045 57.7542C60.8242 57.3525 61.6512 56.9654 62.5276 56.6797C64.3979 56.07 66.3216 55.6405 68.2752 55.4112C68.6986 55.3615 69.1063 55.2187 69.428 54.974C69.7333 54.7416 69.9666 54.4199 70.0729 53.9924C70.2107 53.439 70.1711 53.0201 69.8741 52.5209C69.6507 52.146 69.3311 51.8862 68.9641 51.7369C68.5899 51.5848 68.164 51.549 67.7406 51.6337Z" fill="black"/>
<defs>
<clipPath id="clip0_1_109">
<rect width="202" height="288" fill="white" transform="matrix(-1 0 0 1 368.828 4.48438)"/>
</clipPath>
</defs>
</svg>
