<svg width="194" height="288" viewBox="0 0 194 288" fill="none" xmlns="http://www.w3.org/2000/svg">
<path fill-rule="evenodd" clip-rule="evenodd" d="M9.50479 271.325C9.16919 271.336 9.27497 271.238 9.39826 271.214C9.43377 271.251 9.46928 271.288 9.50479 271.325ZM19.4137 278.685C28.7904 279.796 38.1788 278.78 47.5095 277.761C66.4124 276.361 85.1825 280.44 104.123 279.196C127.793 278.199 151.527 276.328 175.118 279.482C181.643 279.632 192.051 281.391 189.685 271.298C186.576 245.349 182.42 219.531 177.969 193.782C174.196 179.347 173.923 154.379 163.592 144.34C162.081 142.962 156.663 138.505 155.231 137.906C148.11 135.257 135.272 133.19 129.976 127.574C125.686 120.321 127.682 110.424 121.011 104.585C115.164 99.8152 102.404 100.823 96.1532 104.405C91.2215 107.6 90.449 113.806 87.3761 118.395C86.6181 119.495 84.8176 122.146 83.8009 123.001C81.3261 125.381 72.6338 127.883 70.1236 128.342C55.9582 131.243 48.895 133.035 37.7537 142.44C8.64274 172.135 12.7693 224.657 4.71419 263.488C4.38451 267.757 1.78727 273.55 6.42103 276.298C10.412 278.209 15.1044 278.001 19.4137 278.685Z" fill="#AE5D29"/>
<path fill-rule="evenodd" clip-rule="evenodd" d="M126.729 117.702C126.763 117.601 126.926 117.584 126.951 117.702C127.348 119.518 128.092 121.509 128.847 123.211C129.614 124.936 130.662 126.52 131.986 127.866C134.76 130.684 138.328 131.97 142.241 131.973L142.335 131.975C142.353 131.844 142.373 131.712 142.392 131.581L142.419 131.384C142.776 128.684 145.984 128.762 146.611 130.8C146.929 130.901 147.247 131.002 147.562 131.108L147.625 131.131C148.157 131.333 149.957 132.228 150.287 131.99C151.014 131.467 151.845 132.066 152.122 132.734C152.573 133.827 152.648 135.178 152.795 136.365L152.815 136.518L152.837 136.703C163.132 139.377 168.909 149.668 171.858 159.149C173.456 164.288 174.501 169.591 175.552 174.863C176.676 180.503 177.712 186.157 178.809 191.799C180.972 202.918 183.018 214.063 184.796 225.248L185.312 228.497C186.94 238.783 188.527 249.062 189.861 259.395C190.581 264.965 191.257 270.541 191.908 276.122C192.024 277.117 192.14 278.112 192.255 279.108L192.426 280.603C192.578 281.944 192.837 283.269 192.174 284.523C190.736 287.243 186.382 287.223 186.135 283.74C186.086 283.047 186.32 282.518 186.707 282.148L186.702 282.09C186.698 282.055 186.694 282.029 186.693 282.017C186.564 281.325 186.53 280.593 186.451 279.893C186.278 278.401 186.111 276.907 185.94 275.412C185.612 272.564 185.282 269.716 184.939 266.87C184.247 261.097 183.514 255.332 182.738 249.571L181.968 243.876C179.393 224.89 176.71 205.909 173.18 187.074C172.218 181.947 171.23 176.827 170.216 171.709C169.254 166.863 168.174 162.039 166.561 157.36C163.928 149.717 159.324 142.56 152.933 137.543C153.032 138.502 153.103 139.465 153.194 140.424C153.429 142.885 153.678 145.344 153.929 147.803C154.844 156.712 156.084 165.606 158.2 174.318C159.248 178.635 160.525 182.895 162.081 187.057C162.848 189.106 163.684 191.129 164.601 193.115C165.509 195.079 167.099 197.178 167.195 199.366C167.24 200.379 166.179 201.278 165.198 201.169C165.657 205.2 165.915 209.273 166.189 213.294C166.589 219.118 166.907 224.953 167.373 230.772C168.206 241.197 169.252 251.606 170.347 262.006C170.564 264.068 170.799 266.128 171.033 268.188L171.228 269.918C171.36 271.039 171.559 272.382 170.963 273.377C171.496 274.66 171.861 275.979 172.073 277.353C172.341 279.063 171.363 280.98 169.365 280.906C169.138 280.899 168.911 280.879 168.685 280.855C166.833 281.283 164.986 281.66 163.062 281.673C160.607 281.69 158.146 281.641 155.69 281.623C150.938 281.591 146.186 281.559 141.435 281.52C124.233 281.382 107.024 281.389 89.8252 281.113L82.9437 281.004C76.6352 280.903 70.3258 280.786 64.0204 280.556C59.6781 280.399 55.336 280.239 50.9959 280.064L50.1123 280.03C46.2829 279.891 42.449 279.819 38.6619 279.233C38.5669 279.217 38.5259 279.119 38.5406 279.032L38.546 279.009L38.3808 278.972C38.2846 279.386 36.2873 277.647 36.3021 276.491C35.4736 275.414 35.8607 273.695 35.9495 272.448C36.0358 271.233 36.1443 270.016 36.2404 268.802C36.4451 266.207 36.6202 263.61 36.8298 261.016C37.6756 250.554 38.4054 240.066 38.8789 229.582C39.1181 224.297 39.3104 219.01 39.5126 213.725C39.6036 211.319 39.7304 208.911 39.9666 206.515L40.0279 205.917C40.2869 203.488 40.2622 200.876 41.1573 198.587C41.1696 198.555 41.2115 198.555 41.2239 198.587C42.1288 200.815 42.2151 203.404 42.3976 205.848C42.4297 205.838 42.4617 205.833 42.4962 205.826C43.7464 205.232 45.0089 204.698 46.1925 203.963C46.3528 203.865 46.5081 203.761 46.6659 203.66C48.5276 197.969 50.6852 192.371 52.6702 186.717C59.0838 168.433 62.6247 148.961 63.4088 129.6C58.5167 132.751 53.1886 135.203 48.0092 137.836L47.524 138.083C42.4223 140.69 37.5375 143.649 33.9053 148.17C30.7392 152.107 28.6704 156.904 26.7347 161.529C24.656 166.498 22.782 171.557 21.0683 176.662C17.5915 187.02 14.8988 197.631 12.7979 208.351C10.7241 218.931 9.24219 229.589 8.25093 240.322C7.74544 245.797 7.28433 251.276 6.89719 256.763C6.69993 259.54 6.52486 262.319 6.36211 265.101C6.28321 266.451 6.22403 267.804 6.13526 269.154C6.08101 269.932 6.07115 270.735 5.8147 271.475C5.60017 272.09 5.22044 272.606 4.86536 273.15C4.21685 274.143 2.57955 274.323 1.97049 273.15L1.70676 272.642C1.35768 271.966 1.0389 271.285 0.991557 270.504C0.947172 269.765 1.03841 268.994 1.08033 268.252C1.1617 266.752 1.2554 265.249 1.3491 263.748C1.54637 260.592 1.76582 257.436 2.01241 254.282C2.5031 247.965 3.13435 241.665 3.92835 235.377C6.72212 213.294 10.7562 191.326 18.4545 170.369C20.3581 165.188 22.4812 160.048 24.878 155.074C27.1958 150.264 30.1277 145.723 34.3837 142.412C38.3014 139.363 42.8554 137.323 47.3803 135.342L47.9457 135.094C53.0179 132.879 58.0802 130.494 63.3768 128.849C63.2584 128.863 63.1425 128.878 63.0417 128.913C62.9255 128.95 62.8568 128.799 62.9283 128.718C63.2288 128.385 63.3546 128.043 63.7001 127.715C63.9386 127.489 64.1867 127.275 64.4419 127.068L64.8092 126.776C65.4811 126.243 66.1877 125.698 67.0336 125.513C68.2298 125.251 68.8166 126.338 68.481 127.188C68.6536 126.964 69.1172 127.03 69.238 127.338C73.1735 137.479 75.7577 148.214 81.0543 157.796C84.965 164.875 90.2123 171.411 97.1758 175.686C100.916 177.982 105.197 179.746 109.618 180.025C113.588 180.274 117.408 179.266 120.784 177.184C127.328 173.151 131.601 166.07 134.649 159.208C138 151.654 140.392 143.605 141.797 135.444C137.344 135.506 132.644 133.476 129.683 130.167C128.124 128.425 126.963 126.303 126.374 124.042C125.779 121.76 125.969 119.885 126.729 117.702ZM89.3689 111.777C89.9116 110.808 91.115 110.488 92.0988 110.882C93.1909 111.321 93.5191 112.38 93.3638 113.457C93.1835 114.719 92.3723 116.081 91.7413 117.182C91.0804 118.335 90.2297 119.398 89.3492 120.39C87.6924 122.263 85.9192 123.95 83.8161 125.33C81.7227 126.703 79.3552 127.73 76.9217 128.304L76.3431 128.439C74.4501 128.871 71.7568 129.367 70.1799 128.339C70.1037 128.289 70.1059 128.188 70.1799 128.139C71.0331 127.545 72.175 127.439 73.1562 127.159C74.2263 126.851 75.2992 126.501 76.3223 126.062C78.342 125.195 80.2752 124.051 81.9961 122.687C83.7249 121.317 85.3965 119.683 86.5532 117.798C87.1351 116.852 87.6308 115.859 88.1064 114.859C88.5875 113.856 88.8289 112.743 89.3689 111.777Z" fill="black"/>
<path fill-rule="evenodd" clip-rule="evenodd" d="M154.108 66.9595C154.01 61.4342 153.901 55.7983 153.081 50.3268C152.279 44.9775 150.074 40.1423 146.283 36.2579C138.232 28.0069 126.562 25.9915 115.698 24.1446L97.1255 20.9869C91.4592 20.0237 85.4142 18.4841 79.6893 19.8501C76.8683 20.5232 74.4727 22.0869 72.2832 23.937C70.1727 25.7202 67.9036 27.6352 66.4736 30.0343C65.0411 32.4369 64.5483 35.2454 64.0826 37.9627C63.5573 41.0263 63.1493 44.1138 62.8594 47.2087C62.2785 53.4093 62.1992 59.6566 62.6205 65.8701C62.8247 68.8839 63.1495 71.889 63.5642 74.8808C63.7698 76.3644 64.0023 77.8442 64.2648 79.3189C64.3422 79.7537 64.401 80.2352 64.4803 80.7216C63.8945 82.3904 63.5615 84.1186 63.5884 85.8395C63.6674 90.9085 67.9393 94.0999 72.246 95.8133C74.7431 96.8068 77.3537 97.4819 79.8073 98.5918C82.3883 99.7591 84.1452 101.652 85.9099 103.811C89.2756 107.928 93.0737 111.629 97.4106 114.716C106.606 121.262 118.252 124.359 129.409 122.008C132.085 121.445 134.786 120.569 137.192 119.25C139.733 117.857 141.643 115.839 143.247 113.452C146.226 109.022 148.362 104.034 149.978 98.9578C151.626 93.7797 152.796 88.5923 153.434 83.193C154.07 77.8112 154.204 72.3746 154.108 66.9595Z" fill="#AE5D29"/>
<path fill-rule="evenodd" clip-rule="evenodd" d="M94.7837 1.75862C102.46 0.700946 113.054 4.13856 116.877 11.07C135.127 6.75994 158.145 6.61877 173.187 20.9667C188.883 37.9864 169.168 60.4271 156.096 65.4866C157.047 70.1201 155.563 99.8041 145.063 113.045C136.73 124.264 117.323 129.441 108.343 116.041L108.273 115.931C107.311 114.383 108.14 114.433 109.127 115.584C117.921 123.33 129.876 123.463 139.09 115.287C156.356 100.345 154.576 63.7073 146.36 42.5118C122.964 39.9377 97.9136 47.0413 81.7541 64.6837L82.8468 71.2736C83.033 72.3963 83.2445 73.518 83.4058 74.6447C83.5091 75.3666 83.5207 76.0845 83.0214 76.6689C81.3729 78.5979 78.5945 75.6992 76.3085 74.5461C75.6336 74.451 74.9575 74.4143 74.2945 74.4611C63.3113 75.8783 65.4753 97.2214 77.5465 93.4802C78.5608 92.8473 79.4322 93.0404 79.8257 93.9589C82.7029 96.599 84.6001 101.308 89.3804 105.843C91.0671 107.544 92.602 108.967 94.4992 110.332C95.6135 111.461 98.976 112.612 97.9101 114.544C95.8944 118.939 84.0079 105.132 81.9063 101.313C75.3218 103.918 68.0247 103.033 61.2011 102.396C25.2029 100.521 30.0086 62.509 59.5155 38.5097C65.0698 34.4136 71.1978 31.0721 77.5679 28.5007C78.4376 28.1496 78.0576 26.7192 77.1757 27.0752C72.9607 28.7769 68.8518 30.8023 64.935 33.1465L64.9291 31.745C64.9233 29.3845 64.9603 26.9269 65.3696 24.7701C65.5742 23.2757 65.9183 21.6794 66.448 20.4786C67.1029 16.7971 77.3623 4.16024 94.7837 1.75862ZM73.8141 79.3611C74.3699 78.8321 75.4075 79.4629 75.9023 79.4471C77.1677 79.6205 78.3698 80.1559 79.3074 80.8167C79.9264 81.164 80.3602 81.4902 80.7227 81.7903L80.7326 81.7876C80.7299 81.7876 80.7264 81.7903 80.7235 81.7911L80.7576 81.8142C81.2855 82.1899 83.2178 84.306 81.997 83.7369C81.906 83.6184 81.8128 83.5046 81.7188 83.393C81.7087 83.4082 81.6947 83.4233 81.678 83.4378L81.7466 83.5398C82.7842 85.1033 80.9927 83.456 80.7171 83.0185C80.7041 83.0291 80.6893 83.0362 80.6748 83.0439L81.0337 83.4815C81.0839 83.5436 81.1234 83.5932 81.1561 83.6351L81.2318 83.7083C82.4315 84.8896 82.469 85.9527 81.0752 84.2062C81.13 84.2885 81.1741 84.3757 81.1802 84.4531L81.2628 84.5586C82.3571 85.9712 81.467 85.4695 80.9232 84.8662L80.8777 84.8143L80.887 84.8284C81.3929 85.6091 80.3892 85.0613 80.2118 84.6437L80.2043 84.6248C80.011 84.4668 79.8921 84.2896 79.8513 84.2448L79.8438 84.2373C78.9028 83.2715 77.5388 82.4543 76.3802 82.083C76.2122 82.051 76.0423 82.0254 75.8706 82.0071C75.1739 81.8514 74.4695 81.7447 73.7577 81.6871C73.6707 81.6767 73.5824 81.6127 73.5165 81.5299C72.4402 81.4936 72.7724 81.0516 73.219 80.9696L73.2268 80.9682L73.1382 80.9607C72.4475 80.8932 71.9758 80.6449 72.6742 80.4926L72.7627 80.475C72.7518 80.458 72.7422 80.4409 72.7329 80.4239C72.1348 80.3582 72.5251 79.7757 72.8571 79.9167C72.7174 79.4592 73.3559 79.6875 73.4356 79.6196C73.4963 79.552 73.5718 79.4924 73.6153 79.4892C73.8077 79.3532 73.7144 79.3655 73.8141 79.3611ZM77.4737 71.9538L77.3336 72.0359C77.2202 72.1021 77.1036 72.1462 76.9865 72.1721C77.1518 72.2426 77.3151 72.3187 77.4767 72.4C77.4741 72.3006 77.4722 72.2014 77.4722 72.1023L77.4737 71.9538Z" fill="black"/>
<path fill-rule="evenodd" clip-rule="evenodd" d="M121.349 91.3257C122.728 89.0585 125.668 94.6124 125.981 95.5674C126.257 96.4134 126.44 97.28 126.533 98.1566C127.602 98.3961 128.713 98.3965 129.808 98.1867C131.437 97.8745 132.433 96.9996 133.848 96.2485C134.826 95.7294 136.058 96.3381 136.566 97.1989C137.164 98.2122 136.783 99.2639 135.997 100.019C134.505 101.452 131.57 101.781 129.623 101.4C128.508 101.182 127.485 100.764 126.583 100.157C126.577 100.27 126.573 100.384 126.564 100.497L126.546 100.693C126.397 102.282 125.96 104.28 124.725 105.313C122.699 107.009 120.2 103.748 122.168 102.054L122.229 102.003C123.452 101.016 123.719 98.3658 123.653 96.9063C123.61 95.9537 123.436 94.9889 123.135 94.0816L123.073 93.9009C122.983 93.6446 121.995 91.2135 121.638 91.5231L121.621 91.5405C121.473 91.7162 121.236 91.5116 121.349 91.3257ZM132.362 78.5322C134.224 79.6631 137.061 82.3002 135.058 85.1039C132.7 87.5759 129.305 84.7415 127.633 83.4596C126.081 82.4662 124.339 85.0213 125.778 86.1813C137.866 95.1239 142.772 78.8279 133.304 77.2025C132.261 77.0234 131.874 78.1824 132.362 78.5322ZM112.479 68.079C114.299 67.7565 116.163 68.2086 117.669 69.2724L117.783 69.3545C119.233 70.4146 120.857 72.2761 120.024 74.1035C119.69 74.8373 118.689 74.9523 118.054 74.6197C116.997 74.0658 116.806 72.7031 115.863 71.9489C115.089 71.3307 114.048 70.9557 113.051 71.0462C110.711 71.2585 109.271 73.5649 108.545 75.5525C108.452 75.8068 108.078 75.9056 107.932 75.6326C106.218 72.4316 109.252 68.6511 112.479 68.079ZM141.627 66.871C145.113 66.5839 149.194 70.1949 148.276 73.8714C147.836 75.6355 145.217 75.585 144.751 73.8714C144.495 72.9285 144.521 72.0943 143.841 71.3113C143.28 70.6648 142.484 70.2893 141.627 70.3469C140.683 70.4105 139.813 70.8818 139.151 71.5443C138.554 72.1426 138.196 73.018 137.578 73.5474C137.425 73.6775 137.221 73.6859 137.071 73.5474C136.006 72.5661 136.645 70.5231 137.32 69.4986C138.287 68.0326 139.861 67.0166 141.627 66.871ZM105.841 61.5584C108.077 59.5804 112.14 57.6702 115.156 58.6437C116.889 59.2032 117.645 61.9945 115.71 62.8792C113.469 63.9037 110.885 63.4868 108.604 64.5487C107.646 64.9949 106.745 65.5525 106.078 66.3702C105.552 67.0148 105.017 67.8628 104.258 68.2344C104.058 68.3322 103.787 68.3347 103.627 68.1533C101.961 66.2705 104.386 62.8448 105.841 61.5584ZM137.784 58.5455C139.166 58.1579 140.699 58.1658 142.103 58.4092C143.507 58.6527 144.932 59.2339 146.078 60.0817L146.211 60.181C147.461 61.1228 148.954 62.4933 148.874 64.1618C148.807 65.5551 147.341 66.4975 146.074 65.7672C145.042 65.1717 144.556 63.9787 143.682 63.1844C142.96 62.5288 142.113 62.0119 141.209 61.6497C140.205 61.2473 139.199 61.0588 138.122 61.0409C137.292 61.0271 136.457 61.2991 135.643 61.386C135.71 61.5235 135.067 61.4595 134.698 61.3375C134.425 61.2212 134.423 60.876 134.518 60.6521C134.987 59.5426 136.697 58.85 137.784 58.5455Z" fill="black"/>
</svg>
