<svg width="3556" height="532" viewBox="0 0 3556 532" fill="none" xmlns="http://www.w3.org/2000/svg">
<path d="M0 531.257L74.0601 513.493C148.13 496.393 296.262 459.869 444.394 416.207C592.527 371.88 740.66 318.754 888.792 318.754C1036.93 318.754 1185.06 371.88 1333.19 389.644C1481.32 406.744 1629.46 390.142 1777.59 371.88C1925.72 353.618 2073.85 337.016 2221.99 363.081C2370.12 390.142 2518.25 459.869 2666.38 433.804C2814.52 406.744 2962.65 283.89 3110.78 256.829C3258.91 230.765 3407.05 300.492 3481.11 336.519L3555.18 371.88V0.0001688H3481.11C3407.05 0.0001688 3258.91 0.0001688 3110.78 0.0001688C2962.65 0.0001688 2814.52 0.0001688 2666.38 0.0001688C2518.25 0.0001688 2370.12 0.0001688 2221.99 0.0001688C2073.85 0.0001688 1925.72 0.0001688 1777.59 0.0001688C1629.46 0.0001688 1481.32 0.0001688 1333.19 0.0001688C1185.06 0.0001688 1036.93 0.0001688 888.792 0.0001688C740.66 0.0001688 592.527 0.0001688 444.394 0.0001688C296.262 0.0001688 148.13 0.0001688 74.0601 0.0001688H0V531.257Z" fill="#FDDBE2"/>
</svg>
