<svg width="3556" height="536" viewBox="0 0 3556 536" fill="none" xmlns="http://www.w3.org/2000/svg">
<path d="M0 0L74.0601 17.9225C148.13 35.175 296.262 72.025 444.394 116.077C592.527 160.8 740.66 214.4 888.792 214.4C1036.93 214.4 1185.06 160.8 1333.19 142.878C1481.32 125.625 1629.46 142.375 1777.59 160.8C1925.72 179.225 2073.85 195.975 2221.99 169.677C2370.12 142.375 2518.25 72.025 2666.38 98.3225C2814.52 125.625 2962.65 249.575 3110.78 276.878C3258.91 303.175 3407.05 232.825 3481.11 196.477L3555.18 160.8V536H3481.11C3407.05 536 3258.91 536 3110.78 536C2962.65 536 2814.52 536 2666.38 536C2518.25 536 2370.12 536 2221.99 536C2073.85 536 1925.72 536 1777.59 536C1629.46 536 1481.32 536 1333.19 536C1185.06 536 1036.93 536 888.792 536C740.66 536 592.527 536 444.394 536C296.262 536 148.13 536 74.0601 536H0V0Z" fill="#FDDBE2"/>
</svg>
