<svg width="114" height="19" viewBox="0 0 114 19" fill="none" xmlns="http://www.w3.org/2000/svg">
<g clip-path="url(#clip0_1_318)">
<path d="M48.0833 4.73181C49.1701 3.06206 50.766 1.54596 52.6081 1.16491C54.4502 0.773183 56.5386 1.51651 58.4542 2.61123C60.3697 3.70596 62.0911 5.16262 62.4708 6.89735C62.8398 8.632 61.8459 10.6552 60.9907 12.6048C60.1249 14.5542 59.3979 16.4406 57.9749 17.5946C56.5521 18.7379 54.4227 19.1487 52.3414 18.8651C50.2493 18.5921 48.2052 17.6247 47.1227 16.0448C46.0402 14.4542 45.9194 12.2511 46.1584 10.2433C46.3975 8.2248 46.9965 6.40155 48.0833 4.73181Z" fill="#FFDBB4"/>
</g>
<g clip-path="url(#clip1_1_318)">
<path d="M93.0833 4.73181C94.1701 3.06206 95.766 1.54596 97.6081 1.16491C99.4502 0.773183 101.539 1.51651 103.454 2.61123C105.37 3.70596 107.091 5.16262 107.471 6.89735C107.84 8.632 106.846 10.6552 105.991 12.6048C105.125 14.5542 104.398 16.4406 102.975 17.5946C101.552 18.7379 99.4227 19.1487 97.3414 18.8651C95.2493 18.5921 93.2052 17.6247 92.1227 16.0448C91.0402 14.4542 90.9194 12.2511 91.1584 10.2433C91.3975 8.2248 91.9965 6.40155 93.0833 4.73181Z" fill="#FFDBB4"/>
</g>
<g clip-path="url(#clip2_1_318)">
<path d="M70.0833 4.73181C71.1701 3.06206 72.766 1.54596 74.6081 1.16491C76.4502 0.773183 78.5386 1.51651 80.4542 2.61123C82.3697 3.70596 84.0911 5.16262 84.4708 6.89735C84.8398 8.632 83.8459 10.6552 82.9907 12.6048C82.1249 14.5542 81.3979 16.4406 79.9749 17.5946C78.5521 18.7379 76.4227 19.1487 74.3414 18.8651C72.2493 18.5921 70.2052 17.6247 69.1227 16.0448C68.0402 14.4542 67.9194 12.2511 68.1584 10.2433C68.3975 8.2248 68.9965 6.40155 70.0833 4.73181Z" fill="#FFDBB4"/>
</g>
<g clip-path="url(#clip3_1_318)">
<path d="M25.0833 4.73181C26.1701 3.06206 27.766 1.54596 29.6081 1.16491C31.4502 0.773183 33.5386 1.51651 35.4542 2.61123C37.3697 3.70596 39.0911 5.16262 39.4708 6.89735C39.8398 8.632 38.8459 10.6552 37.9907 12.6048C37.1249 14.5542 36.3979 16.4406 34.9749 17.5946C33.5521 18.7379 31.4227 19.1487 29.3414 18.8651C27.2493 18.5921 25.2052 17.6247 24.1227 16.0448C23.0402 14.4542 22.9194 12.2511 23.1584 10.2433C23.3975 8.2248 23.9965 6.40155 25.0833 4.73181Z" fill="#FFDBB4"/>
</g>
<g clip-path="url(#clip4_1_318)">
<path d="M2.08332 4.73181C3.17014 3.06206 4.76601 1.54596 6.6081 1.16491C8.45025 0.773183 10.5386 1.51651 12.4542 2.61123C14.3697 3.70596 16.0911 5.16262 16.4708 6.89735C16.8398 8.632 15.8459 10.6552 14.9907 12.6048C14.1249 14.5542 13.3979 16.4406 11.9749 17.5946C10.5521 18.7379 8.42275 19.1487 6.3414 18.8651C4.24931 18.5921 2.20522 17.6247 1.12269 16.0448C0.0402404 14.4542 -0.0806391 12.2511 0.158386 10.2433C0.397495 8.2248 0.996507 6.40155 2.08332 4.73181Z" fill="#FFDBB4"/>
</g>
<defs>
<clipPath id="clip0_1_318">
<rect width="17" height="18" fill="white" transform="translate(46 1)"/>
</clipPath>
<clipPath id="clip1_1_318">
<rect width="17" height="18" fill="white" transform="translate(91 1)"/>
</clipPath>
<clipPath id="clip2_1_318">
<rect width="17" height="18" fill="white" transform="translate(68 1)"/>
</clipPath>
<clipPath id="clip3_1_318">
<rect width="17" height="18" fill="white" transform="translate(23 1)"/>
</clipPath>
<clipPath id="clip4_1_318">
<rect width="17" height="18" fill="white" transform="translate(0 1)"/>
</clipPath>
</defs>
</svg>
